<?xml version="1.0" standalone="no"?>
<!DOCTYPE svg PUBLIC "-//W3C//DTD SVG 1.1//EN" "http://www.w3.org/Graphics/SVG/1.1/DTD/svg11.dtd" >
<svg xmlns="http://www.w3.org/2000/svg">
<metadata></metadata>
<defs>
<font id="majesti_bannermedium" horiz-adv-x="1550" >
<font-face units-per-em="2048" ascent="1536" descent="-512" />
<missing-glyph horiz-adv-x="466" />
<glyph unicode="&#xfb01;" horiz-adv-x="1247" d="M31 811v25h174v112q0 183 126.5 292.5t330.5 109.5q169 0 271.5 -71.5t102.5 -162.5q0 -59 -37 -99t-94 -40q-55 0 -93 39.5t-38 95.5q0 44 25 79.5t65 49.5q-30 42 -81 69t-115 27q-111 0 -170.5 -75.5t-59.5 -196.5v-229h396l241 20v-702q0 -78 31 -110t113 -32v-12 h-521v12q82 0 113 32t31 110v516q0 74 -27.5 107.5t-97.5 33.5h-279v-653q0 -89 43.5 -117.5t136.5 -28.5v-12h-577v12q86 0 125 32t39 114v653h-174z" />
<glyph unicode="&#xfb02;" horiz-adv-x="1247" d="M31 811v25h174v127q0 181 119.5 284t314.5 103q182 0 291 -88l137 106h8v-1214q0 -78 31 -110t113 -32v-12h-521v12q82 0 113 32t31 110v835q-40 14 -64 48.5t-24 78.5t24.5 78.5t63.5 46.5q-26 42 -75.5 69t-111.5 27q-108 0 -162.5 -75t-54.5 -197v-229h232v-25h-232 v-653q0 -89 43.5 -117.5t136.5 -28.5v-12h-577v12q86 0 125 32t39 114v653h-174z" />
<glyph horiz-adv-x="0" />
<glyph horiz-adv-x="682" />
<glyph unicode=" "  horiz-adv-x="466" />
<glyph unicode="&#x09;" horiz-adv-x="466" />
<glyph unicode="&#xa0;" horiz-adv-x="466" />
<glyph unicode="!" horiz-adv-x="495" d="M102 1135q0 69 41 112t103 43t103.5 -42.5t41.5 -112.5q0 -40 -17 -108t-39.5 -142t-45.5 -208.5t-33 -287.5h-16q-10 153 -33.5 287.5t-46.5 208.5t-40.5 142t-17.5 108zM109 123q0 59 40.5 99t98.5 40t98.5 -40t40.5 -99t-40.5 -99t-98.5 -40t-98.5 40t-40.5 99z" />
<glyph unicode="&#x22;" horiz-adv-x="759" d="M82 1171q0 51 32.5 85t86.5 34q55 0 86.5 -33t31.5 -86q0 -36 -19 -92t-47.5 -142.5t-43.5 -174.5h-16q-16 88 -44 174t-47.5 142.5t-19.5 92.5zM438 1171q0 51 32.5 85t86.5 34q55 0 87 -33t32 -86q0 -36 -19.5 -92.5t-47.5 -142.5t-44 -174h-16q-16 88 -44 174 t-47.5 142.5t-19.5 92.5z" />
<glyph unicode="#" horiz-adv-x="1091" d="M70 371v18h190l109 490h-203v20h209l82 367h22l-82 -367h428l82 367h23l-82 -367h176v-20h-182l-109 -490h195v-18h-199l-82 -371h-22l82 371h-428l-82 -371h-23l82 371h-186zM283 389h428l108 490h-428z" />
<glyph unicode="$" horiz-adv-x="1120" d="M80 266q0 61 39.5 103.5t99.5 42.5t99.5 -41t39.5 -101q0 -52 -32 -91t-80 -50q32 -56 107 -97.5t196 -41.5v545q-167 66 -216 91q-153 78 -197 192q-21 54 -21 120q0 160 116 254.5t318 97.5v135h20v-135q190 -3 307 -83t117 -191q0 -66 -39.5 -107t-99.5 -41t-99.5 41 t-39.5 101q0 51 30 89.5t76 49.5q-75 127 -252 127v-496q166 -65 205 -83q175 -84 230 -204q30 -64 30 -143q0 -165 -120.5 -269.5t-344.5 -105.5v-190h-20v190q-209 3 -339 89.5t-130 201.5zM299 1047q0 -50 18.5 -90.5t56 -71t77.5 -52.5t98 -45v486q-122 -6 -186 -70 t-64 -157zM569 -8q137 7 207 80t70 174q0 46 -16 84.5t-39 65t-63 52t-73.5 41.5t-85.5 37v-534z" />
<glyph unicode="%" horiz-adv-x="1484" d="M68 950q0 153 96 244.5t229 91.5q86 0 161.5 -41t119.5 -115q71 -22 137 -22q71 0 160 22.5t170 59.5q9 17 19 47.5t19.5 45.5t26.5 15q14 0 23.5 -9.5t9.5 -26.5q0 -49 -82 -82l-868 -1198l-17 12l852 1171q-160 -73 -309 -73q-73 0 -131 18q35 -72 35 -160 q0 -153 -96 -244.5t-230 -91.5q-133 0 -229 91.5t-96 244.5zM252 950q0 -323 141 -323q144 0 144 323q0 177 -41 252q-40 36 -64 60q-17 10 -39 10q-141 0 -141 -322zM762 315q0 153 96 244.5t229 91.5q134 0 230 -91.5t96 -244.5t-96 -244t-230 -91q-133 0 -229 91t-96 244 zM946 315q0 -323 141 -323q144 0 144 323q0 322 -144 322q-141 0 -141 -322z" />
<glyph unicode="&#x26;" horiz-adv-x="1544" d="M94 301q0 53 19.5 98t50 77t80.5 62.5t96.5 50.5t112.5 44l-41 39q-164 160 -164 309q0 140 123 224.5t313 84.5q183 0 286 -74.5t103 -187.5q0 -35 -11.5 -66t-28 -54t-45.5 -44.5t-54 -35.5t-63 -29t-63.5 -23.5t-65 -21.5t-58.5 -19l428 -409q44 98 53 202q3 52 -9 81 t-56.5 46t-130.5 17v14h458v-14q-87 0 -134.5 -22t-62.5 -50t-38 -99l-6 -18q-27 -94 -60 -172l177 -170q77 -76 123.5 -101.5t113.5 -25.5v-14h-430l-123 119q-151 -144 -407 -144q-215 0 -350.5 88t-135.5 238zM338 336q0 -67 18.5 -125t55.5 -105t101.5 -74.5 t148.5 -27.5q181 0 313 125l-510 492q-127 -93 -127 -285zM481 1061q0 -67 33 -128.5t115 -139.5l47 -50q91 52 144.5 125.5t53.5 182.5q0 99 -46.5 162t-143.5 63q-94 0 -148.5 -60t-54.5 -155z" />
<glyph unicode="'" horiz-adv-x="403" d="M82 1171q0 51 32.5 85t86.5 34q55 0 86.5 -33t31.5 -86q0 -36 -19 -92t-47.5 -142.5t-43.5 -174.5h-16q-16 88 -44 174t-47.5 142.5t-19.5 92.5z" />
<glyph unicode="(" horiz-adv-x="673" d="M72 537q0 97 20.5 187.5t52.5 162t80 140.5t95.5 120.5t106.5 103t104 86t98 72.5q35 25 51 37l6 -10q-52 -39 -102 -91t-103 -134t-92 -177t-64.5 -225t-25.5 -272t25.5 -272t64.5 -225.5t92 -178t103 -135t102 -91.5l-6 -8q-16 12 -50 37q-49 35 -76 55.5t-79 62.5 t-84.5 73.5t-79.5 82t-77 94.5t-64 104.5t-53 120t-32 132t-13 148.5z" />
<glyph unicode=")" horiz-adv-x="673" d="M-12 -365q52 39 101.5 91.5t102.5 135t92 178t64 225t25 272.5t-25 272.5t-64 224.5t-92 177t-102.5 134t-101.5 91l6 10q16 -12 51 -37q177 -129 269 -221q288 -286 288 -651q0 -97 -22 -188.5t-49.5 -160.5t-83.5 -143.5t-92.5 -118t-109 -105.5t-101.5 -83.5 t-100 -73.5q-34 -25 -50 -37z" />
<glyph unicode="*" horiz-adv-x="854" d="M114.5 838q8.5 32 39.5 49q18 11 99.5 20.5t149.5 32.5l5 -8q-41 -36 -76 -79.5t-56.5 -72.5t-39.5 -39q-27 -17 -59.5 -9t-51.5 42q-19 32 -10.5 64zM114.5 1057q-8.5 29 10.5 67q19 31 50.5 39.5t60.5 -8.5q18 -10 39 -38t56 -71.5t77 -80.5l-5 -9q-67 23 -149 33 t-100 21q-31 18 -39.5 47zM344 680q0 22 32.5 98.5t45.5 145.5h10q14 -70 46 -146t32 -98q0 -34 -23 -57t-59 -23q-40 0 -62 23t-22 57zM344 1217q0 34 22.5 57.5t61.5 23.5q36 0 59 -23t23 -58q0 -21 -32 -97t-46 -145h-10q-13 69 -45.5 144.5t-32.5 97.5zM446 932l5 8 q68 -23 150 -32.5t101 -20.5q30 -17 37.5 -49t-10.5 -64q-19 -34 -51.5 -42t-59.5 9q-18 10 -39.5 39t-56.5 72.5t-76 79.5zM446 965q42 37 77 80.5t56 71.5t39 38q29 17 60.5 8.5t50.5 -39.5q18 -38 9.5 -67t-38.5 -47q-18 -11 -100 -21t-149 -33z" />
<glyph unicode="+" horiz-adv-x="1071" d="M80 492v20h446v446h19v-446h446v-20h-446v-447h-19v447h-446z" />
<glyph unicode="," horiz-adv-x="499" d="M74 -262q98 35 167 114.5t72 172.5q-31 -25 -77 -25q-54 0 -93 38.5t-39 92.5q0 55 40.5 93t101.5 38q67 0 106 -48t39 -122q0 -108 -80.5 -209.5t-230.5 -154.5z" />
<glyph unicode="-" horiz-adv-x="784" d="M121 442v74h541v-74h-541z" />
<glyph unicode="." horiz-adv-x="487" d="M104 123q0 58 40.5 98.5t99.5 40.5q58 0 98.5 -40t40.5 -99t-40.5 -99t-98.5 -40q-59 0 -99.5 40.5t-40.5 98.5z" />
<glyph unicode="/" horiz-adv-x="903" d="M49 -332l785 1759l18 -8l-786 -1759z" />
<glyph unicode="0" horiz-adv-x="1245" d="M100 633q0 187 60.5 334.5t180.5 235t282 87.5t281.5 -87.5t180 -235t60.5 -334.5t-60.5 -335t-180 -235.5t-281.5 -87.5t-282 87.5t-180.5 235.5t-60.5 335zM367 633q0 -124 13 -232t41 -204t79.5 -151.5t122.5 -55.5t122.5 55.5t79.5 151.5t41 204t13 232t-13 232 t-41 204t-79.5 151.5t-122.5 55.5t-122.5 -55.5t-79.5 -151.5t-41 -204t-13 -232z" />
<glyph unicode="1" horiz-adv-x="788" d="M66 1122v13q276 19 473 133l8 -2v-1061q0 -114 44.5 -153.5t160.5 -39.5v-12h-666v12q121 0 169 43.5t48 159.5v805q0 52 -18.5 77t-71.5 25h-147z" />
<glyph unicode="2" horiz-adv-x="1150" d="M92 969q0 54 31 109.5t88 103.5t149 78t201 30q126 0 228 -39t163.5 -115.5t61.5 -179.5q0 -65 -26 -119t-70 -92.5t-104 -74.5t-125 -63.5t-136 -61t-134.5 -66.5t-123.5 -80.5t-100 -101.5q-36 -50 -52 -113q54 146 256 146q85 0 226.5 -46t212.5 -46q180 0 180 168 q0 42 -8 81h14q20 -82 20 -180q0 -49 -6.5 -94t-23 -88t-41 -74t-63 -50t-87.5 -19q-61 0 -117.5 31t-100.5 75t-87.5 88.5t-97.5 75.5t-111 31q-81 0 -125.5 -55.5t-44.5 -141.5q0 -45 13 -86h-19q-24 93 -11 169t66 146q42 62 119.5 126.5t149.5 117t140.5 114 t110.5 144.5t42 182q0 119 -60 196t-184 77q-100 0 -164 -48.5t-96 -121.5q55 -4 92 -45.5t37 -98.5q0 -61 -41 -103t-101 -42q-63 0 -102 46.5t-39 109.5z" />
<glyph unicode="3" horiz-adv-x="1163" d="M90 252q0 63 39 107t98 44t100.5 -42t41.5 -103q0 -53 -33.5 -93.5t-83.5 -49.5q29 -52 88 -87.5t152 -35.5q78 0 138 26.5t96.5 73.5t54.5 106.5t18 129.5q0 155 -84.5 233.5t-237.5 81.5q-65 -1 -107 -11.5t-44 -10.5q-14 0 -26.5 8.5t-12.5 21.5t10.5 23t28.5 10 q8 0 22 -6.5t45 -12t82 -3.5q139 3 211 93t72 226q0 129 -66 210t-190 81q-151 0 -226 -123q50 -9 82.5 -49t32.5 -92q0 -61 -39.5 -102.5t-99.5 -41.5t-98.5 41.5t-38.5 106.5q0 116 125 197t323 81t329.5 -83t131.5 -232q0 -147 -130.5 -231t-340.5 -87h-12v-8h12 q103 0 192 -18t162.5 -55.5t115.5 -101.5t42 -148q0 -113 -74 -194.5t-187.5 -119t-250.5 -37.5q-204 0 -333.5 82t-129.5 195z" />
<glyph unicode="4" horiz-adv-x="1159" d="M33 344l198 207q80 77 142.5 200t62.5 248q0 101 -42 174.5t-111 112.5q121 3 223 -24t165.5 -83.5t63.5 -131.5q0 -51 -29 -102t-82.5 -101t-109 -93.5t-130.5 -102.5t-124 -105l-199 -193h592v221l234 226h10v-447q77 1 120.5 13t45.5 12q18 0 28.5 -10t10.5 -23 t-12.5 -22t-26.5 -9q-7 0 -24 5t-53 10t-89 6v-127q0 -114 44.5 -153.5t160.5 -39.5v-12h-666v12q121 0 169 43.5t48 159.5v117h-616z" />
<glyph unicode="5" horiz-adv-x="1134" d="M76 252q0 65 40 108t101 43t99 -41t38 -102q0 -55 -33 -95t-83 -48q68 -125 227 -125q83 0 146 33t98.5 89t53 120.5t17.5 136.5q0 162 -83 254t-230 92q-130 0 -260 -66q-5 -34 -15.5 -52.5t-33.5 -18.5q-29 0 -29 28q0 33 64 56l57 602q24 -1 80.5 -4t93 -4.5t95 -3.5 t99.5 -1t92.5 3t89 8.5t74 15.5t62 23.5t39.5 33.5q33 -82 33 -137q0 -99 -66 -143.5t-170 -44.5q-204 0 -514 153l-51 -497q168 77 336 77q220 0 362 -102t142 -276q0 -119 -70.5 -209t-188.5 -136.5t-264 -46.5q-198 0 -323 81.5t-125 195.5z" />
<glyph unicode="6" horiz-adv-x="1224" d="M100 608q0 141 39.5 265t112 216.5t183.5 146.5t245 54q175 0 285 -81.5t110 -192.5q0 -65 -39 -108.5t-100 -43.5q-60 0 -99.5 41t-39.5 101q0 52 31 91t79 48q-52 131 -198 131q-87 0 -154.5 -47t-106.5 -121t-62.5 -173.5t-30 -197.5t-1.5 -200q25 120 119.5 192 t235.5 72q183 0 300 -116.5t117 -287.5q0 -181 -134.5 -301.5t-356.5 -120.5q-116 0 -209 37.5t-153 99.5t-100 145.5t-56.5 170.5t-16.5 180zM356 385q1 -101 30 -189t91.5 -148t147.5 -60q64 0 114.5 35t80 94t44.5 130t15 150q0 104 -22.5 184t-77 131.5t-136.5 51.5 q-116 0 -202 -97.5t-85 -281.5z" />
<glyph unicode="7" horiz-adv-x="997" d="M80 807v459h16l8 -310h5q5 59 12.5 102t22 88t35.5 73t55 45.5t79 17.5q54 0 107 -25.5t95.5 -61.5t84.5 -72t90 -61.5t96 -25.5q43 0 76.5 20t52 50t28 61t9.5 58q0 13 -4 41h19q4 -20 4 -39q-1 -41 -15.5 -88t-27.5 -75t-46.5 -87.5t-43.5 -79.5 q-123 -237 -181.5 -435.5t-72.5 -461.5h-269q5 50 16.5 101t23 93t36 95t40 87.5t50.5 92t52.5 86t62 92t62 87.5t70 95t69.5 95q8 10 33 38t37 42.5t29.5 39t29.5 46.5l-4 4q-44 -66 -91 -101t-129 -35q-58 0 -199 33t-214 33q-102 0 -145 -52.5t-48 -164.5h-16z" />
<glyph unicode="8" horiz-adv-x="1245" d="M100 326q0 65 26.5 121.5t78.5 102.5t138 76t198 38q-195 15 -300.5 96.5t-105.5 208.5q0 145 130.5 233t357.5 88t357 -88t130 -233q0 -127 -105 -208.5t-300 -96.5q218 -16 329 -109.5t111 -228.5q0 -150 -132.5 -250.5t-389.5 -100.5q-132 0 -234.5 28.5t-164.5 77.5 t-93 111t-31 134zM365 322q0 -149 63.5 -240.5t194.5 -91.5q130 0 194 91.5t64 240.5t-64 242t-194 93q-131 0 -194.5 -92.5t-63.5 -242.5zM397 973q0 -135 55 -219t171 -84q78 0 130 42t73.5 108t21.5 153t-21.5 153t-73.5 108t-130 42q-116 0 -171 -84t-55 -219z" />
<glyph unicode="9" horiz-adv-x="1224" d="M100 870q0 183 135 301.5t355 118.5q116 0 208.5 -36.5t152.5 -97.5t99.5 -143.5t56.5 -169.5t17 -181q0 -140 -37.5 -262.5t-109 -218t-184.5 -151t-254 -55.5q-179 0 -289.5 81t-110.5 192q0 67 38 110t99 43q60 0 101 -41.5t41 -101.5q0 -52 -32.5 -91t-80.5 -48 q63 -129 213 -129q61 0 112 21.5t86.5 59.5t64 88.5t44 109t28 121t15 124.5t4.5 119.5t-2 105.5q-27 -121 -118.5 -192.5t-235.5 -71.5q-183 0 -299.5 111.5t-116.5 283.5zM348 877q0 -170 65 -265.5t179 -95.5q53 0 101 22t87 65t62.5 114.5t23.5 163.5q0 102 -26.5 188.5 t-87.5 146.5t-148 60q-85 0 -144.5 -59.5t-85.5 -147t-26 -192.5z" />
<glyph unicode=":" horiz-adv-x="509" d="M115 123q0 58 41 98.5t100 40.5q58 0 98.5 -40t40.5 -99t-40.5 -99t-98.5 -40q-59 0 -100 40.5t-41 98.5zM115 700q0 58 41 99t100 41q58 0 98.5 -40.5t40.5 -99.5t-40.5 -100t-98.5 -41t-99.5 41.5t-41.5 99.5z" />
<glyph unicode=";" horiz-adv-x="538" d="M98 -262q99 35 168 114.5t72 172.5q-31 -25 -78 -25q-54 0 -92.5 38.5t-38.5 92.5q0 55 40 93t101 38q67 0 106.5 -48t39.5 -122q0 -108 -80.5 -209.5t-231.5 -154.5zM129 700q0 58 41 99t100 41q58 0 99 -41t41 -99q0 -59 -41 -100t-99 -41t-99.5 41.5t-41.5 99.5z" />
<glyph unicode="&#x3c;" horiz-adv-x="962" d="M61 494v14l795 403v-22l-770 -387l770 -389v-21z" />
<glyph unicode="=" horiz-adv-x="1175" d="M131 274v19h911v-19h-911zM131 711v20h911v-20h-911z" />
<glyph unicode="&#x3e;" horiz-adv-x="962" d="M106 92v21l771 389l-771 387v22l795 -403v-14z" />
<glyph unicode="?" horiz-adv-x="1058" d="M66 999q0 114 128.5 202.5t323.5 88.5q204 0 337.5 -98t133.5 -250q0 -55 -21 -101.5t-61 -81t-83.5 -60.5t-105.5 -47.5t-108.5 -34.5t-109.5 -27l-8 -201h-13l-8 209q266 70 266 346q0 144 -66.5 237t-199.5 93q-88 0 -150 -38.5t-96 -98.5q50 -9 83.5 -49t33.5 -93 q0 -60 -40.5 -101.5t-98.5 -41.5q-59 0 -98 42t-39 105zM350 123q0 59 40 99t99 40t99.5 -40.5t40.5 -98.5t-40.5 -98.5t-99.5 -40.5t-99 40t-40 99z" />
<glyph unicode="@" horiz-adv-x="1648" d="M90 416q0 131 44 253.5t121 217t177 166t217.5 109.5t237.5 38q188 0 340 -91t235.5 -243t83.5 -331q0 -186 -91 -305t-249 -119q-205 0 -239 143q-137 -148 -289 -148q-112 0 -170.5 73.5t-58.5 195.5q0 182 122.5 312t307.5 130q131 0 188 -76l182 66l8 -8l-104 -457 q-12 -46 -12 -92q0 -113 96 -113q115 0 198 111t83 289q0 171 -81 315.5t-226 230.5t-322 86q-144 0 -275 -59.5t-225.5 -160.5t-150.5 -241.5t-56 -295.5q0 -132 42 -250.5t116.5 -207t185.5 -140.5t242 -52q121 0 241 39.5t214 112.5l8 -10q-203 -164 -465 -164 q-139 0 -263.5 51t-215.5 139.5t-144 215t-53 270.5zM649 360q0 -88 34 -140t99 -52q86 0 183 104q-4 20 -4 31q0 40 10 82l71 313q-40 99 -122 99q-79 0 -143.5 -74t-96 -173t-31.5 -190z" />
<glyph unicode="A" horiz-adv-x="1363" d="M-74 0v12q33 0 63 7t54.5 17.5t48.5 30.5t41 37t36.5 46t31.5 49.5t29 56t25.5 56.5t25 59.5t24.5 56.5l363 846h12l450 -989q27 -59 51 -101t58 -84.5t76.5 -65t91.5 -22.5v-12h-674v12q109 0 142 69q13 27 13 61q0 54 -32 128l-70 156h-458l-17 -43q-47 -121 -47 -203 q0 -168 199 -168v-12h-537zM338 446h440l-225 512z" />
<glyph unicode="B" horiz-adv-x="1353" d="M59 0v12q116 0 150.5 39.5t34.5 153.5v854q0 58 -6.5 91.5t-26.5 58t-55.5 33.5t-96.5 9v15h641q519 0 519 -310q0 -280 -451 -297v-6q494 -14 494 -317q0 -156 -124.5 -246t-392.5 -90h-686zM500 14h194q146 0 221.5 94.5t75.5 231.5q0 136 -77.5 220.5t-235.5 84.5 h-178v-631zM500 662h147q155 0 229 79t74 213q0 57 -14 107t-44 93.5t-85.5 69t-130.5 25.5h-176v-587z" />
<glyph unicode="C" horiz-adv-x="1390" d="M88 627q0 195 91.5 346t254.5 234t371 83q52 0 120.5 -6t116.5 -11q32 -3 68 -3h39q60 2 111 16l34 -416l-10 -2q-88 212 -201 310t-270 98q-95 0 -171.5 -35.5t-127.5 -95.5t-85 -143t-49 -175.5t-15 -195.5q0 -102 14.5 -193t47.5 -174.5t82.5 -144t124 -96 t167.5 -35.5q327 0 510 432h10l-68 -383q-85 -26 -210 -44t-232 -18q-169 0 -306 49.5t-228 136.5t-140 206.5t-49 259.5z" />
<glyph unicode="D" horiz-adv-x="1536" d="M59 0v12q116 0 150.5 39.5t34.5 153.5v854q0 58 -6.5 91.5t-26.5 58t-55.5 33.5t-96.5 9v15h658q336 0 532.5 -171.5t196.5 -461.5t-196 -461.5t-533 -171.5h-658zM500 14h190q101 0 182.5 33t136 90t91 136.5t53 169t16.5 190.5t-16.5 189.5t-53 168t-91 136t-136 89.5 t-182.5 33h-190v-1235z" />
<glyph unicode="E" horiz-adv-x="1290" d="M59 0v12q116 0 150.5 39.5t34.5 153.5v854q0 58 -6.5 91.5t-26.5 58t-55.5 33.5t-96.5 9v15h1078l28 -396l-10 -2q-21 94 -54.5 160.5t-91 118.5t-147.5 77t-215 25h-147v-610h47q185 0 271.5 67.5t115.5 215.5h10v-580h-10q-29 147 -116 214t-271 67h-47v-609h166 q104 0 185 23t133 58.5t91.5 92.5t61 110t41.5 126l10 -2l-39 -422h-1090z" />
<glyph unicode="F" horiz-adv-x="1214" d="M59 0v12q116 0 150.5 39.5t34.5 153.5v854q0 58 -6.5 91.5t-26.5 58t-55.5 33.5t-96.5 9v15h1074l26 -410l-10 -2q-21 94 -55.5 163t-92.5 123t-147.5 81.5t-210.5 27.5h-143v-626h43q182 0 270 71.5t115 220.5h10v-600h-10q-28 148 -115.5 219.5t-269.5 71.5h-43v-391 q0 -119 42.5 -161t162.5 -42v-12h-646z" />
<glyph unicode="G" horiz-adv-x="1574" d="M88 621q0 151 59 278t159.5 212t234.5 132t284 47q49 0 122.5 -6t127.5 -11q36 -3 77 -3h42q66 3 117 16l35 -405l-11 -2q-77 200 -206.5 298.5t-290.5 98.5q-96 0 -175.5 -35t-134 -96t-92 -145t-54.5 -180t-17 -204q0 -127 25.5 -235.5t78.5 -198t145 -141t215 -51.5 q152 0 306 82v309q0 115 -39 160t-160 45v14h625v-14q-59 0 -94 -8.5t-54 -32.5t-25 -56.5t-6 -91.5v-334q-280 -88 -536 -88q-153 0 -279.5 34.5t-214 94.5t-148 142t-88.5 176.5t-28 198.5z" />
<glyph unicode="H" horiz-adv-x="1624" d="M59 0v12q116 0 150.5 39.5t34.5 153.5v854q0 58 -6.5 91.5t-26.5 58t-55.5 33.5t-96.5 9v15h625v-15q-116 0 -150 -39t-34 -153v-408h624v408q0 114 -34 153t-150 39v15h625v-15q-61 0 -96.5 -9t-55.5 -33.5t-26.5 -58t-6.5 -91.5v-854q0 -114 34.5 -153.5t150.5 -39.5 v-12h-625v12q61 0 96.5 9t55.5 34t26 58t6 92v428h-624v-428q0 -59 6 -92t26 -58t55.5 -34t96.5 -9v-12h-625z" />
<glyph unicode="I" horiz-adv-x="743" d="M59 0v12q116 0 150.5 39.5t34.5 153.5v854q0 58 -6.5 91.5t-26.5 58t-55.5 33.5t-96.5 9v15h625v-15q-116 0 -150 -39t-34 -153v-854q0 -59 6 -92t26 -58t55.5 -34t96.5 -9v-12h-625z" />
<glyph unicode="J" horiz-adv-x="716" d="M23 -334q64 33 107 74t64 89.5t29 94.5t8 105v1030q0 114 -34 153t-150 39v15h623v-15q-61 0 -96.5 -9t-55.5 -33.5t-26.5 -58t-6.5 -91.5v-985q0 -64 -25.5 -121.5t-68 -101.5t-101.5 -82t-123.5 -64.5t-137.5 -46.5z" />
<glyph unicode="K" horiz-adv-x="1449" d="M59 0v12q116 0 150.5 39.5t34.5 153.5v854q0 58 -6.5 91.5t-26.5 58t-55.5 33.5t-96.5 9v15h625v-15q-116 0 -150 -39t-34 -153v-531l360 363q180 180 180 272q0 88 -159 88v15h573v-15q-150 0 -303 -112q-80 -60 -272 -252l-76 -80l430 -617q68 -97 127.5 -137.5 t124.5 -40.5v-12h-432l-430 629l-123 -125v-299q0 -59 6 -92t26 -58t55.5 -34t96.5 -9v-12h-625z" />
<glyph unicode="L" horiz-adv-x="1212" d="M59 0v12q116 0 150.5 39.5t34.5 153.5v854q0 58 -6.5 91.5t-26.5 58t-55.5 33.5t-96.5 9v15h646v-15q-120 0 -162.5 -41t-42.5 -161v-1035h131q122 0 213.5 31.5t150.5 91.5t94 132t56 167l10 -2l-29 -434h-1067z" />
<glyph unicode="M" horiz-adv-x="1857" d="M0 0v12q59 0 98 8.5t73 36.5t54 71.5t37 122t26.5 179.5t18.5 252l17 240q2 30 2 57q0 130 -44 194q-53 78 -204 78v15h471l436 -910l377 910h405v-15q-117 1 -153 -57q-30 -48 -30 -141q0 -18 1 -37l37 -772q6 -128 46.5 -180t152.5 -52v-12h-633v12q112 0 148 54 q31 46 31 136q0 15 -1 31l-45 881l-451 -1077h-12l-506 1030l-26 -385q-6 -116 -10 -196q-3 -70 -4 -134v-18q0 -74 5 -119.5t17 -84.5t27.5 -59.5t41.5 -35t56 -19t73 -4.5v-12h-532z" />
<glyph unicode="N" horiz-adv-x="1482" d="M31 0v12q47 0 80.5 5t61.5 22.5t45.5 37.5t31 62.5t20.5 83.5t11 116t5 144.5t1 182.5v276q0 164 -51.5 236.5t-194.5 72.5v15h414l745 -871v203q0 113 -1 182.5t-5 144.5t-11 116t-20.5 83.5t-31 62t-45.5 37t-61.5 22.5t-80.5 5v15h533v-15q-47 0 -80.5 -5t-61.5 -22.5 t-45.5 -37t-31 -62t-20.5 -83.5t-11 -116t-5 -144.5t-1 -182.5v-608l-11 -4l-903 1048v-368q0 -113 1 -182.5t5 -144.5t11 -116t20.5 -83.5t31 -62.5t45.5 -37.5t61.5 -22.5t80.5 -5v-12h-532z" />
<glyph unicode="O" d="M86 633q0 139 52 260.5t142 209t218.5 137.5t275.5 50q148 0 276.5 -50t218.5 -137.5t141.5 -209t51.5 -260.5q0 -186 -88 -336.5t-245.5 -236t-354.5 -85.5t-354.5 85.5t-245.5 236t-88 336.5zM365 633q0 -102 12 -191.5t41.5 -173.5t75 -144t117.5 -96t163 -36 q92 0 163.5 36t117.5 95.5t76 143.5t42.5 174t12.5 192q0 103 -12 192.5t-42 173t-76 143t-118 95t-164 35.5t-164 -36t-117.5 -95.5t-74.5 -143.5t-41 -173t-12 -191z" />
<glyph unicode="P" horiz-adv-x="1267" d="M59 0v12q116 0 150.5 39.5t34.5 153.5v854q0 58 -6.5 91.5t-26.5 58t-55.5 33.5t-96.5 9v15h629q141 0 246 -28t167 -78t92 -115t30 -144q0 -166 -129.5 -264t-405.5 -98h-92v14h47q81 0 142 29t96 79t52 110t17 130q0 55 -10 104t-33.5 94.5t-58 78t-87.5 52t-118 19.5 h-143v-1044q0 -59 6 -92t26 -58t55.5 -34t96.5 -9v-12h-625z" />
<glyph unicode="Q" d="M86 633q0 139 52 260.5t142 209t218.5 137.5t275.5 50q148 0 276.5 -50t218.5 -137.5t141.5 -209t51.5 -260.5q0 -178 -81 -323.5t-226 -233.5t-328 -99q59 -5 119.5 -30t111.5 -56.5t101 -62t106 -51.5t109 -21q126 0 203 121l12 -6q-29 -51 -56 -89t-68 -81t-93 -66.5 t-112 -23.5q-58 0 -123 24t-124 58.5t-117.5 68.5t-123 58t-121.5 24q-125 0 -219 -118l-12 8q8 9 43 50t48 54.5t46.5 45t57.5 45t60.5 28t74.5 18.5q-143 4 -266.5 56t-211 139t-137 206.5t-49.5 256.5zM365 633q0 -102 12 -191.5t41.5 -173.5t75 -144t117.5 -96t163 -36 q92 0 163.5 36t117.5 95.5t76 143.5t42.5 174t12.5 192q0 103 -12 192.5t-42 173t-76 143t-118 95t-164 35.5t-164 -36t-117.5 -95.5t-74.5 -143.5t-41 -173t-12 -191z" />
<glyph unicode="R" horiz-adv-x="1423" d="M59 0v12q116 0 150.5 39.5t34.5 153.5v854q0 58 -6.5 91.5t-26.5 58t-55.5 33.5t-96.5 9v15h633q277 0 419 -86t142 -246q0 -302 -512 -320v-8q73 -1 129 -6.5t98.5 -17.5t72 -25t52 -37t36.5 -45t26.5 -57t20.5 -65t21.5 -77.5t25.5 -85.5q34 -103 73.5 -140.5 t126.5 -37.5v-12h-399q-35 69 -74 215q-8 30 -21 84q-39 153 -64 201q-39 73 -119 93q-42 11 -105 11h-141v-399q0 -59 6 -92t26 -58t55.5 -34t96.5 -9v-12h-625zM500 618h162q162 0 244.5 90t82.5 228q0 139 -84 226t-252 87h-153v-631z" />
<glyph unicode="S" horiz-adv-x="1163" d="M113 414l12 2q63 -165 105 -233q100 -163 268 -188q33 -5 69 -5q145 0 220 69t75 174q0 59 -25 105.5t-67.5 78.5t-97.5 58.5t-116 50t-121.5 47.5t-115.5 57t-97.5 73t-67.5 100t-25 135q0 161 114.5 256.5t336.5 95.5q52 0 112 -6t100 -11q36 -5 82 -5h9q51 0 98 12 l25 -397l-11 -2q-63 155 -106 222q-113 173 -303 173q-125 0 -192.5 -64.5t-67.5 -160.5q0 -56 25 -100.5t68 -75.5t98 -57t116 -49.5t122.5 -48.5t116.5 -59t98 -75.5t68 -102.5t25 -137q0 -172 -127.5 -271.5t-372.5 -99.5q-180 0 -428 54z" />
<glyph unicode="T" horiz-adv-x="1335" d="M59 821l37 445h1143l37 -445l-12 -2q-16 56 -29 95.5t-34 88t-43.5 81.5t-56.5 66.5t-74.5 53.5t-95 32.5t-120.5 12.5h-16v-1034q0 -119 42 -161t162 -42v-12h-663v12q120 0 162.5 42t42.5 161v1034h-17q-66 0 -120.5 -12.5t-95 -32.5t-74.5 -53.5t-56.5 -66.5 t-43.5 -81.5t-33.5 -87.5t-28.5 -96z" />
<glyph unicode="U" horiz-adv-x="1429" d="M35 1251v15h624v-15q-60 0 -96.5 -11.5t-55.5 -39.5t-25.5 -63.5t-6.5 -94.5v-659q0 -377 318 -377q170 0 271 106t101 304v207q0 107 -1 177t-6 140t-12 111t-20.5 80t-31.5 59t-45 35.5t-60 20.5t-78 5v15h529v-15q-37 0 -65 -3.5t-52.5 -13.5t-42.5 -22t-32.5 -36 t-24 -47.5t-16.5 -64.5t-11 -80t-6.5 -100.5t-3 -118.5t-0.5 -142v-207q0 -216 -118.5 -328.5t-342.5 -112.5q-104 0 -192 24.5t-160 76t-113 141.5t-41 211v614q0 59 -6.5 94.5t-25.5 63.5t-55.5 39.5t-96.5 11.5z" />
<glyph unicode="V" horiz-adv-x="1335" d="M-39 1251v15h670v-15q-79 -1 -118 -33q-37 -31 -37 -84v-6q2 -56 32 -133l285 -686l186 469q86 219 86 318q0 73 -44 114t-134 41v15h516v-15q-85 0 -145 -37.5t-107 -113.5q-54 -89 -154 -332l-315 -778h-14l-435 993q-28 65 -47.5 102t-52.5 81t-75.5 64.5t-96.5 20.5z " />
<glyph unicode="W" horiz-adv-x="1996" d="M-39 1251v15h639v-15q-75 1 -110 -29q-34 -29 -34 -78q0 -51 31 -128l281 -705l233 598l-26 74q-49 128 -111.5 198t-154.5 70v15h651v-15q-152 0 -152 -127q0 -53 27 -129l242 -671l170 456q75 205 75 316q0 155 -176 155v15h518v-15q-163 0 -254 -147 q-8 -12 -15.5 -25.5t-15.5 -31t-14.5 -30.5t-16 -35.5t-15 -36t-16.5 -41.5t-16 -41t-18 -46.5t-18 -46.5l-297 -780h-14l-340 887l-352 -887h-15l-414 993q-19 47 -33 76.5t-39.5 70t-51.5 64t-64.5 40.5t-83.5 17z" />
<glyph unicode="X" horiz-adv-x="1411" d="M-53 0v12q88 0 163.5 38.5t153.5 109.5q118 113 266 321l72 97l-235 366q-44 70 -76.5 114.5t-78.5 94t-96 74t-104 24.5v15h682v-15q-62 0 -94.5 -21t-34.5 -57v-9q1 -32 13 -68q14 -40 43 -86l174 -273l53 72q84 119 123 195t39 131q0 54 -38 85t-114 31v15h586v-15 q-160 0 -316 -139q-121 -112 -270 -317l-53 -74l264 -412q41 -63 77.5 -110t82.5 -92.5t96.5 -70t101.5 -24.5v-12h-679v12q76 0 106 34q21 24 20 58q0 14 -3 28q-12 52 -56 120l-203 311l-65 -92q-83 -122 -121.5 -198t-38.5 -130q0 -61 42 -96t124 -35v-12h-606z" />
<glyph unicode="Y" horiz-adv-x="1366" d="M-23 1251v15h664v-15q-109 0 -132 -61q-6 -16 -6 -35q0 -53 46 -129l256 -428h4l106 180q85 145 120.5 223.5t35.5 128.5q0 121 -174 121v15h535v-15q-89 0 -154 -33.5t-119 -99.5q-31 -36 -74.5 -102.5t-129.5 -206.5q-16 -27 -25 -41l-107 -178v-344q0 -126 41.5 -180 t163.5 -54v-12h-663v12q63 0 103.5 13.5t62.5 44.5t30 72t8 104v268l-305 500q-71 114 -138 175.5t-149 61.5z" />
<glyph unicode="Z" horiz-adv-x="1251" d="M61 4l799 1245h-342q-81 0 -149.5 -33.5t-117 -93t-82.5 -128t-58 -150.5h-11l31 422h1026l4 -4l-801 -1246h388q283 0 409 418l10 -2l-39 -432h-1065z" />
<glyph unicode="[" horiz-adv-x="626" d="M135 -344v1761h488v-14h-193q-96 0 -96 -88v-1559q0 -88 96 -88h193v-12h-488z" />
<glyph unicode="\" horiz-adv-x="903" d="M49 1419l19 8l784 -1759l-16 -8z" />
<glyph unicode="]" horiz-adv-x="626" d="M2 -332h193q96 0 96 88v1559q0 88 -96 88h-193v14h490v-1761h-490v12z" />
<glyph unicode="^" horiz-adv-x="968" d="M86 696l391 604h15l389 -604l-9 -6l-389 375l-389 -375z" />
<glyph unicode="_" horiz-adv-x="1056" d="M0 -100h1057v-19h-1057v19z" />
<glyph unicode="`" horiz-adv-x="671" d="M153 1229q-6 38 19 67q27 30 66 30t75 -32q22 -19 53.5 -61.5t89 -127t93.5 -134.5l-4 -4q-46 24 -115 59.5t-105.5 54.5t-73.5 41t-54 37q-38 32 -44 70z" />
<glyph unicode="a" horiz-adv-x="1048" d="M78 211q0 117 95.5 176t244.5 59q122 0 229 -34v206q0 108 -39 168t-137 60q-122 0 -190 -103q36 -13 58.5 -46t22.5 -72q0 -53 -35 -88t-89 -35q-56 0 -89.5 39t-33.5 92q0 93 103.5 159t262.5 66q59 0 114.5 -10t108 -33.5t91.5 -57.5t62.5 -86.5t23.5 -117.5v-451 q0 -71 57 -71q70 0 137 119l12 -9q-43 -73 -97.5 -116t-139.5 -43q-77 0 -128.5 37.5t-66.5 101.5q-103 -144 -293 -144q-128 0 -206 63.5t-78 170.5zM319 219q0 -89 38 -140.5t108 -51.5q99 0 182 108v260q-97 27 -145 27q-88 0 -135.5 -51t-47.5 -152z" />
<glyph unicode="b" horiz-adv-x="1103" d="M2 1315v12l377 41v-645q113 135 280 135q113 0 198.5 -62t127 -159t41.5 -211q0 -196 -121 -322.5t-327 -126.5q-145 0 -244 72l-182 -72l-7 5v1192q0 78 -30.5 109.5t-112.5 31.5zM379 111q16 -48 56.5 -83.5t105.5 -35.5q63 0 110.5 37t74 99t39.5 133t13 149 q0 109 -22 192.5t-73.5 137t-127.5 53.5q-98 0 -176 -93v-589z" />
<glyph unicode="c" horiz-adv-x="960" d="M76 412q0 102 38 187t102 141t147 87t174 31q155 0 251.5 -79t96.5 -179q0 -61 -36.5 -100t-92.5 -39q-55 0 -92 38t-37 93q0 49 30.5 85t77.5 44q-20 52 -63 87.5t-109 35.5q-62 0 -110 -34.5t-75.5 -94t-41.5 -130.5t-14 -151q0 -195 73 -304.5t203 -109.5 q94 0 169 54.5t120 138.5l12 -6q-24 -43 -56 -80.5t-78.5 -73t-113 -56t-143.5 -20.5q-133 0 -232.5 60t-149.5 157.5t-50 217.5z" />
<glyph unicode="d" horiz-adv-x="1124" d="M78 414q0 192 117.5 318t308.5 126q138 0 219 -74v390q0 83 -38 112t-126 29v12l397 41v-1214q0 -78 31 -110t113 -32v-12h-373v117q-112 -140 -278 -140q-165 0 -268 128t-103 309zM326 426q0 -106 22.5 -190.5t75 -139.5t129.5 -55q98 0 170 94v555q-11 62 -58 106 t-114 44q-73 0 -126 -64.5t-76 -156t-23 -193.5z" />
<glyph unicode="e" horiz-adv-x="997" d="M76 420q0 192 126 315t318 123q113 0 202.5 -44t144 -134.5t57.5 -214.5h-602v-26q0 -189 69 -300q74 -119 217 -119q100 0 176.5 56.5t124.5 136.5l13 -8q-142 -228 -402 -228q-106 0 -191.5 36.5t-140 98.5t-83.5 141t-29 167zM322 483h362q0 40 -2.5 79t-12.5 93 t-26.5 93.5t-49 67.5t-75.5 28q-46 0 -83 -31.5t-60 -84t-36.5 -115t-16.5 -130.5z" />
<glyph unicode="f" horiz-adv-x="696" d="M31 811v25h174v149q0 89 30 160t82 115t118.5 67t142.5 23q143 0 223 -70t80 -156q0 -57 -36 -93t-87 -36q-52 0 -87.5 37t-35.5 90q0 45 26 79.5t68 45.5q-35 90 -129 90q-79 0 -120.5 -67t-41.5 -178v-256h232v-25h-232v-653q0 -89 43.5 -117.5t136.5 -28.5v-12h-577 v12q86 0 125 32t39 114v653h-174z" />
<glyph unicode="g" horiz-adv-x="958" d="M29 -180q0 38 23.5 68t61.5 47t71.5 26t68.5 14q-64 16 -98.5 46.5t-34.5 82.5q0 116 172 177q-102 35 -158.5 107t-56.5 167q0 132 108.5 217.5t284.5 85.5q112 0 209 -41q20 38 43 83.5t34 68t25.5 46t26.5 35t27 17.5q16 9 34 9q13 0 26 -4q31 -11 46 -40 q12 -21 12 -41q0 -31 -28 -59q-14 -13 -40.5 -28.5t-51.5 -27t-70 -32t-72 -33.5q80 -40 125 -107t45 -149q0 -133 -107 -218t-284 -85q-93 0 -166 24q-53 -22 -53 -61q0 -25 29 -38.5t77 -17t108.5 -7t124.5 -6t124.5 -16t108.5 -36t77 -67t29 -107.5q0 -130 -121.5 -203 t-359.5 -73q-121 0 -214 18.5t-149.5 59t-56.5 98.5zM162 -162q0 -84 73 -133t230 -49q91 0 158 17t101 45t49 55.5t15 56.5q0 43 -33.5 68.5t-93 35t-122 13t-139.5 9.5t-126 17q-112 -39 -112 -135zM315 555q0 -86 14.5 -149t50.5 -102.5t91 -39.5t91 39.5t50.5 102.5 t14.5 149t-14.5 149t-50.5 102.5t-91 39.5t-91 -39.5t-50.5 -102.5t-14.5 -149z" />
<glyph unicode="h" horiz-adv-x="1140" d="M27 0v12q82 0 112.5 32t30.5 110v1020q0 78 -30.5 109.5t-112.5 31.5v12l376 41v-682q167 172 330 172q106 0 175 -67t69 -203v-434q0 -78 30.5 -110t112.5 -32v-12h-510v12q73 0 103 32.5t30 109.5v452q0 83 -35 125.5t-100 42.5q-101 0 -205 -108v-512q0 -78 31 -110 t113 -32v-12h-520z" />
<glyph unicode="i" horiz-adv-x="591" d="M43 0v12q82 0 112.5 32t30.5 110v508q0 78 -30.5 109.5t-112.5 31.5v12l377 41v-702q0 -78 30.5 -110t112.5 -32v-12h-520zM150 1141q0 61 41.5 99t103.5 38q61 0 102 -38t41 -99t-41 -100.5t-102 -39.5q-62 0 -103.5 39.5t-41.5 100.5z" />
<glyph unicode="j" horiz-adv-x="557" d="M0 -354q51 29 85.5 61.5t52.5 60.5t27.5 69.5t11 70.5t1.5 80v674q0 78 -34.5 109.5t-118.5 31.5v12l387 41v-825q0 -77 -34.5 -142t-95 -112t-128 -79.5t-148.5 -57.5zM139 1141q0 60 42.5 98.5t103.5 38.5q62 0 103.5 -38t41.5 -99t-41.5 -100.5t-103.5 -39.5 q-61 0 -103.5 39.5t-42.5 100.5z" />
<glyph unicode="k" horiz-adv-x="1093" d="M27 0v12q82 0 112.5 32t30.5 110v1020q0 78 -30.5 109.5t-112.5 31.5v12l376 41v-1008l193 193q125 122 125 190q0 78 -135 78v15h477v-15q-133 0 -250 -88q-85 -62 -160 -141l-20 -21l289 -430q43 -64 91.5 -96.5t110.5 -32.5v-12h-374l-279 408l-68 -68v-186 q0 -78 31 -110t113 -32v-12h-520z" />
<glyph unicode="l" horiz-adv-x="577" d="M29 0v12q82 0 112.5 32t30.5 110v1020q0 78 -30.5 109.5t-112.5 31.5v12l377 41v-1214q0 -78 30.5 -110t112.5 -32v-12h-520z" />
<glyph unicode="m" horiz-adv-x="1677" d="M41 0v12q82 0 112.5 32t30.5 110v508q0 78 -30.5 109.5t-112.5 31.5v12l367 41v-170q163 172 321 172q81 0 141.5 -44t81.5 -132q167 176 326 176q104 0 169.5 -66.5t65.5 -203.5v-434q0 -78 31 -110t113 -32v-12h-506v12q73 0 103 32.5t30 109.5v452q0 168 -131 168 q-97 0 -197 -108q7 -44 7 -78v-434q0 -78 29.5 -110t107.5 -32v-12h-498v12q73 0 103 32.5t30 109.5v452q0 83 -34 125.5t-97 42.5q-92 0 -190 -102v-518q0 -77 30 -109.5t103 -32.5v-12h-506z" />
<glyph unicode="n" horiz-adv-x="1155" d="M41 0v12q82 0 112.5 32t30.5 110v508q0 78 -30.5 109.5t-112.5 31.5v12l373 41v-174q167 176 334 176q107 0 175 -66.5t68 -203.5v-434q0 -78 31 -110t113 -32v-12h-510v12q73 0 103 32.5t30 109.5v452q0 83 -35 125.5t-100 42.5q-59 0 -107.5 -29.5t-97.5 -78.5v-512 q0 -77 30 -109.5t103 -32.5v-12h-510z" />
<glyph unicode="o" horiz-adv-x="1087" d="M76 418q0 102 38.5 186.5t103.5 139t149 84.5t176 30t176 -30t149 -84.5t103.5 -139t38.5 -186.5q0 -135 -66.5 -237.5t-171.5 -153t-229 -50.5t-229 50.5t-171.5 153t-66.5 237.5zM328 418q0 -424 215 -424q217 0 217 424t-217 424q-215 0 -215 -424z" />
<glyph unicode="p" horiz-adv-x="1126" d="M27 -322q81 0 112 33.5t31 112.5v833q0 79 -31 112.5t-112 33.5v12l370 41v-139q112 141 279 141q110 0 196 -61.5t130.5 -161.5t44.5 -217q0 -190 -114.5 -315.5t-307.5 -125.5q-150 0 -222 72v-233q0 -76 35.5 -107t118.5 -31v-12h-530v12zM403 178q0 -82 49.5 -133 t122.5 -51q55 0 99.5 36.5t71 96.5t40 131.5t13.5 147.5q0 110 -22.5 194.5t-74.5 138.5t-129 54q-101 0 -170 -95v-520z" />
<glyph unicode="q" horiz-adv-x="1101" d="M78 408q0 195 122.5 322.5t323.5 127.5q150 0 250 -78l174 74h8v-1030q0 -79 31.5 -112.5t112.5 -33.5v-12h-531v12q84 0 119 32.5t35 113.5v285q-111 -132 -279 -132q-113 0 -198.5 62.5t-126.5 159t-41 209.5zM326 424q0 -167 55.5 -274t167.5 -107q100 0 174 88v598 q-18 46 -58.5 79.5t-101.5 33.5q-63 0 -110.5 -37t-74 -99t-39.5 -133t-13 -149z" />
<glyph unicode="r" horiz-adv-x="849" d="M41 0v12q81 0 112 33.5t31 112.5v499q0 79 -31 112.5t-112 33.5v12l373 41v-266q39 113 111 190.5t161 77.5q67 0 104 -41t37 -98t-38.5 -96t-92.5 -39q-60 0 -99 44q-33 37 -33 87q0 9 1 18q-94 -35 -147 -158v-417q0 -81 34.5 -113.5t118.5 -32.5v-12h-530z" />
<glyph unicode="s" horiz-adv-x="870" d="M94 276l10 3q17 -39 26.5 -59.5t28.5 -56t34.5 -55.5t40.5 -46t50.5 -39t60 -23t73.5 -10q95 0 140.5 45.5t45.5 105.5q0 41 -21.5 72.5t-57 51t-80.5 39t-92 34.5t-92 39t-80.5 52t-57 73.5t-21.5 103.5q0 118 86 185t248 67q44 0 108 -6t94 -8q4 0 8 -1q30 0 85 9 l14 -274l-10 -3q-18 41 -34 73t-43 71.5t-56 65t-70.5 43.5t-87.5 18q-80 0 -121.5 -42.5t-41.5 -101.5q0 -45 28 -78t72.5 -54.5t98.5 -40.5t107.5 -42t98 -52.5t72.5 -79.5t28 -115q0 -124 -95 -193.5t-269 -69.5q-131 0 -316 37z" />
<glyph unicode="t" horiz-adv-x="696" d="M29 811v25h145v217l234 43v-260h254v-25h-254v-612q0 -158 112 -158q94 0 185 117l10 -8q-59 -76 -130.5 -123t-170.5 -47q-109 0 -174.5 64t-65.5 185v582h-145z" />
<glyph unicode="u" horiz-adv-x="1140" d="M20 803v12l377 41v-627q0 -168 135 -168q58 0 106 29t99 78v489q0 78 -30 112t-103 34v12l367 41v-698q0 -79 31 -112.5t112 -33.5v-12h-373v152q-170 -175 -333 -175q-107 0 -175.5 67t-68.5 204v409q0 79 -31.5 112.5t-112.5 33.5z" />
<glyph unicode="v" horiz-adv-x="999" d="M-29 821v15h568v-15q-100 -1 -124 -47q-9 -17 -9 -39q0 -38 26 -90l174 -397l78 188q88 206 88 285q0 100 -131 100v15h393v-15q-129 0 -205 -116q-29 -45 -131 -279l-190 -440h-12l-308 643q-45 98 -93.5 145t-123.5 47z" />
<glyph unicode="w" horiz-adv-x="1515" d="M-23 821v15h543v-15q-60 1 -88 -21q-26 -20 -26 -54v-6q2 -38 28 -95l176 -401l150 362l-17 35q-41 94 -77 137t-97 43v15h527v-15q-99 -1 -123 -47q-9 -18 -9 -41q0 -37 23 -88l150 -387l73 191q82 212 82 276q0 96 -127 96v15h385v-15q-136 0 -204 -110 q-9 -14 -19 -33.5t-17 -34.5t-19.5 -45t-18.5 -44.5t-22.5 -56.5t-22.5 -57l-187 -454h-12l-256 592l-258 -592h-12l-307 643q-45 97 -94 144.5t-124 47.5z" />
<glyph unicode="x" horiz-adv-x="1024" d="M-23 0v12q118 0 228 101q70 65 172 204l45 64l-148 237q-66 105 -123.5 154t-138.5 49v15h541v-15q-75 1 -91 -43q-4 -12 -4 -26q0 -35 29 -80l109 -172l37 49q96 132 96 194q0 78 -123 78v15h410v-15q-119 0 -215 -96q-42 -40 -160 -190l-35 -48l170 -268 q67 -105 126.5 -156t139.5 -51v-12h-550v12q54 0 78 23t19 58t-32 77l-125 199l-45 -66q-101 -138 -98 -207q0 -84 125 -84v-12h-437z" />
<glyph unicode="y" horiz-adv-x="1009" d="M-18 821v15h567v-15q-68 0 -101 -21t-33 -59q0 -39 25 -96l174 -401l74 174q94 236 94 301q0 102 -131 102v15h396v-15q-135 0 -209 -123q-7 -11 -14.5 -24t-17 -32.5t-16.5 -33.5t-19.5 -43t-19.5 -44.5t-24 -55t-25 -57.5l-208 -476q-128 -288 -312 -288 q-100 0 -100 80q0 42 33.5 64t85 30.5t106 17.5t105 38t73.5 79l17 37l-305 639q-43 97 -92 144.5t-123 47.5z" />
<glyph unicode="z" horiz-adv-x="935" d="M70 6l518 815h-176q-60 0 -113 -29t-91.5 -78t-65.5 -102t-44 -112h-12l33 336h725l6 -9l-516 -811h190q52 0 98.5 21t80 53t63 76.5t48 83t34.5 82.5l12 -2l-35 -330h-749z" />
<glyph unicode="{" horiz-adv-x="694" d="M-20 528v15q163 0 242 73.5t79 243.5q0 77 -20.5 184.5t-20.5 153.5q0 119 97 175.5t315 56.5v-13q-147 -1 -199.5 -42.5t-52.5 -131.5q0 -86 50 -249.5t50 -223.5q0 -63 -30.5 -106t-91.5 -68t-133.5 -37t-176.5 -18v-11q71 -6 121 -13t103 -18.5t88 -27.5t64 -39 t42.5 -56t13.5 -75q0 -60 -50 -223.5t-50 -249.5q0 -59 19.5 -94.5t75.5 -56.5t157 -23v-10q-218 0 -315 56t-97 173q0 46 20.5 154.5t20.5 183.5q0 172 -78.5 244.5t-242.5 72.5z" />
<glyph unicode="|" horiz-adv-x="288" d="M135 -344v1761h19v-1761h-19z" />
<glyph unicode="}" horiz-adv-x="694" d="M20 -346q101 2 157 23t75.5 56.5t19.5 94.5q0 86 -50 249.5t-50 223.5q0 42 13.5 75t42.5 56t64 39t88 27.5t103 18.5t121 13v11q-104 6 -176.5 18t-133.5 37t-91.5 68t-30.5 106q0 60 50 223.5t50 249.5q0 90 -52.5 131.5t-199.5 42.5v13q219 0 315.5 -56.5t96.5 -175.5 q0 -46 -20.5 -153.5t-20.5 -184.5q0 -170 80 -243.5t242 -73.5v-15q-163 0 -242.5 -73t-79.5 -244q0 -75 20.5 -183.5t20.5 -154.5q0 -118 -96.5 -173.5t-315.5 -55.5v10z" />
<glyph unicode="~" horiz-adv-x="962" d="M131 375q12 56 22.5 94.5t27.5 79t37.5 64.5t51 39.5t68.5 15.5q42 0 92 -19.5t88 -43t85.5 -43t86.5 -19.5q105 0 139 133l11 -4q-12 -54 -21.5 -89t-26.5 -77t-37 -66.5t-51.5 -41.5t-70.5 -17q-42 0 -92 19.5t-88 43t-85.5 43t-86.5 19.5q-106 0 -140 -133z" />
<glyph unicode="&#xa1;" horiz-adv-x="471" d="M90 -313q0 40 17.5 108.5t40 142.5t46 208.5t33.5 287.5h17q10 -153 33 -287.5t45.5 -208.5t39.5 -142.5t17 -108.5q0 -70 -40.5 -112t-102.5 -42t-104 42t-42 112zM94 698q0 59 40.5 100.5t98.5 41.5q59 0 100.5 -42t41.5 -100t-41.5 -98.5t-100.5 -40.5t-99 40.5 t-40 98.5z" />
<glyph unicode="&#xa2;" horiz-adv-x="995" d="M90 653q0 131 61.5 233t161.5 156t219 58v170h19v-170q156 0 252 -79.5t96 -178.5q0 -61 -36.5 -100.5t-92.5 -39.5q-55 0 -92 38.5t-37 93.5q0 49 31 85t78 44q-20 51 -63 86.5t-109 35.5q-82 0 -138.5 -61t-80 -150.5t-23.5 -197.5q0 -195 73 -304.5t203 -109.5 q94 0 169 54.5t120 138.5l12 -6q-124 -218 -364 -230v-192h-19v192q-138 0 -239.5 60t-151 157t-49.5 217z" />
<glyph unicode="&#xa3;" horiz-adv-x="1241" d="M92 657v19h164q-63 136 -63 246q0 168 134 268t341 100q104 0 191 -26.5t141 -70t84 -96t30 -106.5q0 -67 -40 -110t-99 -43q-57 0 -98 42.5t-41 102.5q0 55 34.5 95t87.5 46q-72 148 -241 148q-73 0 -127 -27t-85 -75.5t-46 -109t-15 -134.5q0 -73 37 -250h379v-19h-375 q43 -193 43 -276q0 -65 -12 -127q19 -4 71.5 -14t79 -15t67.5 -11.5t73 -9.5t59 -3q248 0 254 254h13q15 -478 -246 -478q-49 0 -92 16t-78 43.5t-65.5 57t-69.5 63t-76 54.5q-26 -102 -83.5 -163.5t-152.5 -61.5q-76 0 -118.5 38.5t-42.5 100.5q0 71 59.5 112.5t163.5 41.5 q36 0 108 -11q-9 58 -34 118t-75 150.5t-65 120.5h-174zM127 125q0 -53 36 -89t103 -36q88 0 137.5 69t40.5 171q-50 20 -122 20q-94 0 -144.5 -36.5t-50.5 -98.5z" />
<glyph unicode="&#xa5;" horiz-adv-x="1505" d="M57 1251v15h635v-15q-105 0 -129 -59t37 -166l242 -428h4l129 225q123 215 123 307q0 121 -176 121v15h524v-15q-90 0 -152.5 -36t-119.5 -109q-13 -17 -25.5 -34.5t-31.5 -48t-31 -51t-44 -74t-51 -85.5l-71 -121h274v-18h-287l-51 -90v-162h338v-19h-338v-157 q0 -126 41.5 -180t163.5 -54v-12h-639v12q122 0 163.5 54t41.5 180v157h-338v19h338v98l-90 154h-248v18h237l-190 322q-69 117 -132.5 177t-146.5 60z" />
<glyph unicode="&#xa6;" horiz-adv-x="305" d="M143 -344v819h19v-819h-19zM143 700v717h19v-717h-19z" />
<glyph unicode="&#xa7;" horiz-adv-x="962" d="M106 72q0 46 33 78t78 32q47 0 80 -33t33 -79q0 -40 -23.5 -71t-60.5 -40q66 -94 207 -94q109 0 163 49.5t54 118.5q0 49 -30.5 87t-80 63t-108.5 48t-118.5 48t-109 55.5t-80 78.5t-30.5 109q0 83 56 140.5t171 115.5q-88 42 -137 98t-49 144q0 121 94.5 195.5 t251.5 74.5q149 0 237 -64t88 -149q0 -51 -32 -80.5t-78 -29.5t-77.5 32t-31.5 78q0 41 24 72.5t62 38.5q-58 92 -182 92q-94 0 -148.5 -48t-54.5 -118q0 -50 30.5 -88.5t79.5 -64t108 -49t117.5 -49t107.5 -57t79.5 -80.5t30.5 -112q0 -81 -53 -137t-170 -115 q88 -42 137 -97.5t49 -141.5q0 -120 -94.5 -194t-261.5 -74q-160 0 -260.5 65.5t-100.5 151.5zM256 625q0 -42 21 -75t63 -58t81.5 -41.5t102 -40.5t99.5 -41q28 19 45 33.5t33 44.5t16 65q0 43 -20.5 77t-62.5 59.5t-80 42t-102 40.5t-98 39q-98 -54 -98 -145z" />
<glyph unicode="&#xa8;" horiz-adv-x="972" d="M180 1130q0 52 35.5 88.5t87.5 36.5q51 0 88 -36.5t37 -88.5t-36.5 -88t-86.5 -36q-51 0 -88 36t-37 88zM545 1130q0 52 35.5 88.5t87.5 36.5q51 0 88 -36.5t37 -88.5t-37 -88t-88 -36t-87 36t-36 88z" />
<glyph unicode="&#xa9;" horiz-adv-x="1501" d="M92 633q0 178 88.5 329.5t240 239.5t329.5 88q134 0 256 -52t210 -140t139.5 -210t51.5 -255q0 -178 -87.5 -329.5t-239 -240t-330.5 -88.5q-178 0 -329.5 88.5t-240 240t-88.5 329.5zM113 633q0 -130 50.5 -248t136 -204t203.5 -136.5t247 -50.5q130 0 248 50.5 t204 136.5t136.5 204t50.5 248t-50.5 248t-136.5 204t-204 136.5t-248 50.5q-129 0 -247 -50.5t-203.5 -136.5t-136 -204t-50.5 -248zM356 629q0 169 119.5 270.5t310.5 101.5q36 0 97 -5t89.5 -5.5t86.5 8.5l20 -245h-6q-52 126 -119.5 182.5t-152.5 56.5 q-64 0 -111.5 -30.5t-73.5 -82.5t-38.5 -113t-12.5 -132t12 -132.5t37.5 -115t72.5 -84.5t110 -31q96 0 170 70.5t123 189.5l6 -2l-41 -231q-115 -35 -258 -35q-213 0 -327 101t-114 264z" />
<glyph unicode="&#xaa;" horiz-adv-x="1052" d="M119 434v19h811v-19h-811zM143 766q0 97 77.5 144.5t201.5 47.5q91 0 186 -26v170q0 88 -32 137t-111 49q-101 0 -156 -84q29 -10 47.5 -38t18.5 -60q0 -43 -29 -71.5t-72 -28.5q-47 0 -73.5 32.5t-26.5 75.5q0 76 84.5 130t214.5 54q61 0 116.5 -14t103.5 -42t76 -78 t28 -115v-371q0 -57 47 -57q35 0 65 30t49 66l9 -6q-71 -131 -193 -131q-62 0 -104 30.5t-56 83.5q-84 -119 -237 -119q-105 0 -169.5 52.5t-64.5 138.5zM338 774q0 -73 31.5 -115.5t89.5 -42.5q82 0 149 89v213q-58 20 -119 20q-151 0 -151 -164z" />
<glyph unicode="&#xab;" horiz-adv-x="1198" d="M51 455v6l592 409l6 -10l-438 -401l438 -404l-6 -8zM528 455v6l592 409l6 -10l-436 -401l436 -404l-6 -8z" />
<glyph unicode="&#xad;" horiz-adv-x="739" d="M104 451v51h531v-51h-531z" />
<glyph unicode="&#xae;" horiz-adv-x="833" d="M96 1014q0 132 94 225.5t226 93.5q133 0 226 -93.5t93 -225.5t-93 -226t-226 -94q-132 0 -226 94t-94 226zM113 1014q0 -126 89 -214.5t214 -88.5q126 0 214.5 88.5t88.5 214.5t-88.5 214.5t-214.5 88.5q-125 0 -214 -88.5t-89 -214.5zM254 856v4q26 0 34.5 9t8.5 38v211 q0 29 -8.5 38t-34.5 9v6h172q70 0 105.5 -22.5t35.5 -61.5q0 -23 -12 -39t-34 -23.5t-41.5 -10.5t-45.5 -4v-2q29 0 48.5 -3.5t30.5 -7t19 -15t10.5 -18.5t7.5 -28t9 -33q8 -25 18 -34t33 -9v-4h-114q-5 10 -19 57q-14 66 -24 78q-13 15 -47 15h-33v-99q0 -29 9 -38t36 -9 v-4h-164zM373 1012h39q39 0 57 21.5t18 53.5q0 34 -18.5 56t-58.5 22h-37v-153z" />
<glyph unicode="&#xaf;" horiz-adv-x="868" d="M150 1024v70h569v-70h-569z" />
<glyph unicode="&#xb0;" horiz-adv-x="755" d="M80 1053q0 65 27 116.5t70.5 81.5t95 46t104.5 16q54 0 105.5 -16t95.5 -46t71 -81.5t27 -116.5q0 -64 -27 -115t-71 -81t-95.5 -46t-105.5 -16q-53 0 -104.5 16t-95 46t-70.5 81t-27 115zM246 1053q0 -248 131 -248q133 0 133 248q0 247 -133 247q-131 0 -131 -247z" />
<glyph unicode="&#xb1;" horiz-adv-x="1167" d="M129 0v18h911v-18h-911zM129 655v21h444v446h21v-446h444v-21h-444v-446h-21v446h-444z" />
<glyph unicode="&#xb2;" horiz-adv-x="763" d="M57 1284q0 75 86 139t228 64q128 0 214.5 -56.5t86.5 -154.5q0 -62 -39 -107t-103 -75t-133 -56t-142.5 -66t-117.5 -89q-28 -35 -39 -72q40 88 178 88q54 0 144 -24.5t135 -24.5q119 0 119 106q0 23 -6 50h10q14 -46 14 -119q0 -41 -7 -76.5t-23 -67.5t-46 -50.5 t-71 -18.5q-42 0 -80 19.5t-68 47.5t-58.5 56t-63.5 47.5t-72 19.5q-53 0 -82 -34.5t-29 -88.5q0 -39 8 -55h-12q-15 61 -6 108.5t47 92.5q27 36 75.5 75t93 71.5t87.5 71.5t68.5 90t25.5 112q0 75 -38 121.5t-113 46.5q-60 0 -101 -30t-61 -73q37 -5 61.5 -31.5t24.5 -62.5 q0 -41 -28 -68.5t-68 -27.5q-44 0 -71.5 30t-27.5 72z" />
<glyph unicode="&#xb3;" horiz-adv-x="768" d="M57 844q0 41 27.5 70.5t69.5 29.5q41 0 69.5 -28t28.5 -68q0 -35 -22 -62.5t-56 -33.5q40 -70 141 -70q95 0 145 58.5t50 148.5q0 95 -52.5 143.5t-152.5 50.5q-29 1 -49.5 -2t-31.5 -6.5t-15 -3.5q-25 0 -25 19q0 7 6.5 13.5t16.5 6.5q3 0 32.5 -8t61.5 -8 q92 0 138 57.5t46 140.5t-42 133t-119 50q-91 0 -136 -72q34 -6 55 -32.5t21 -61.5q0 -40 -27.5 -67.5t-68.5 -27.5t-67.5 28.5t-26.5 68.5q0 74 83.5 125t215.5 51q135 0 221 -53t86 -146t-90.5 -144.5t-231.5 -51.5h-8v-5h8q96 0 171.5 -19.5t125.5 -66t50 -114.5 q0 -103 -98 -159t-240 -56q-136 0 -223 50.5t-87 121.5z" />
<glyph unicode="&#xb4;" horiz-adv-x="671" d="M137 973q28 40 73 105t68.5 98.5t50.5 68t44 49.5q36 32 75 32t66 -30q25 -29 19 -67t-44 -70q-17 -15 -54.5 -37t-74 -41t-105 -53.5t-114.5 -58.5z" />
<glyph unicode="&#xb5;" horiz-adv-x="1187" d="M133 18v805l234 27v-621q0 -168 135 -168q58 0 106 29t99 78v655l233 27v-705q0 -116 88 -116q39 0 94 34l4 -12q-104 -71 -221 -71q-98 0 -146 45t-48 127q-170 -175 -334 -175q-83 0 -144.5 40t-85.5 122v-86q0 -46 16 -88t40 -72.5t51.5 -61t51.5 -54t40 -51.5t16 -54 q0 -30 -19 -50.5t-58 -20.5q-36 0 -63.5 19.5t-43.5 58t-26 75t-13.5 93.5t-4.5 88t-1 83z" />
<glyph unicode="&#xb6;" horiz-adv-x="1005" d="M63 918q0 149 121 248.5t310 99.5h432v-17h-121v-1370h-19v1370h-262v-1370h-20v699q-206 0 -323.5 97.5t-117.5 242.5z" />
<glyph unicode="&#xb7;" horiz-adv-x="497" d="M109 489q0 58 41 99t100 41q58 0 98.5 -40.5t40.5 -99.5t-40.5 -99t-98.5 -40q-59 0 -100 40.5t-41 98.5z" />
<glyph unicode="&#xb8;" horiz-adv-x="669" d="M72 -383l6 10q70 -45 160 -45q74 0 117.5 41t43.5 105q0 58 -34 94.5t-95 36.5q-34 0 -77 -17l-5 4l134 144l18 -4l-109 -117q47 14 113 14q106 0 170 -41.5t64 -117.5q0 -60 -42.5 -100.5t-100.5 -56.5t-126 -16q-144 0 -237 66z" />
<glyph unicode="&#xb9;" horiz-adv-x="503" d="M33 1378v6q185 16 323 89l6 -3v-653q0 -74 29.5 -98.5t100.5 -24.5v-8h-449v8q75 0 107 28t32 103v488q0 33 -12 49t-45 16h-92z" />
<glyph unicode="&#xba;" horiz-adv-x="1038" d="M133 434v19h772v-19h-772zM133 936q0 165 112.5 263.5t272.5 98.5q161 0 274 -98.5t113 -263.5q0 -163 -113.5 -262t-273.5 -99q-103 0 -189.5 42.5t-141 126t-54.5 192.5zM348 936q0 -346 170 -346q172 0 172 346q0 350 -172 350q-170 0 -170 -350z" />
<glyph unicode="&#xbb;" horiz-adv-x="1198" d="M72 55l436 404l-436 401l6 10l592 -409v-6l-592 -408zM549 55l438 404l-438 401l6 10l592 -409v-6l-592 -408z" />
<glyph unicode="&#xbc;" horiz-adv-x="1671" d="M88 1174v6q189 16 324 88l6 -2v-654q0 -74 29 -98.5t100 -24.5v-8h-449v8q75 0 107.5 28.5t32.5 103.5v487q0 33 -12.5 49.5t-45.5 16.5h-92zM371 -10l897 1294l14 -8l-897 -1294zM891 211l123 117q54 49 93.5 125.5t39.5 154.5q0 125 -103 191q126 3 222 -39t96 -117 q0 -42 -35 -85.5t-79 -74.5t-111.5 -77.5t-106.5 -79.5l-119 -109h385v129l172 156h7v-285q50 0 78.5 7t29.5 7q10 0 17.5 -6t7.5 -14q0 -7 -8.5 -12.5t-16.5 -5.5l-30 6q-30 6 -78 6v-74q0 -74 29.5 -98.5t101.5 -24.5v-8h-451v8q76 0 108.5 27.5t32.5 103.5v66h-401z" />
<glyph unicode="&#xbd;" horiz-adv-x="1705" d="M78 1174v6q187 16 323 88l7 -2v-654q0 -74 29 -98.5t100 -24.5v-8h-449v8q75 0 107 28t32 104v487q0 34 -12 50t-45 16h-92zM360 -10l897 1294l15 -8l-897 -1294zM993 598q0 75 85.5 139t228.5 64q128 0 214.5 -56.5t86.5 -154.5q0 -62 -39 -107t-103 -75t-133 -56 t-143 -66t-119 -89q-28 -35 -39 -72q43 88 180 88q54 0 144 -24.5t135 -24.5q119 0 119 106q0 22 -6 49h10q14 -58 14 -118q0 -41 -7.5 -77t-23.5 -67.5t-45.5 -50t-70.5 -18.5q-42 0 -80.5 19.5t-68.5 47.5t-59 56t-64 47.5t-72 19.5q-53 0 -82 -34.5t-29 -88.5 q0 -31 8 -55h-12q-14 61 -4.5 108.5t45.5 92.5q27 36 76 75t93.5 71.5t87.5 71.5t69 90t26 112q0 74 -39 120.5t-114 46.5q-61 0 -102 -30t-58 -72q37 -5 61.5 -31.5t24.5 -62.5q0 -41 -28.5 -68.5t-69.5 -27.5q-43 0 -70 30.5t-27 71.5z" />
<glyph unicode="&#xbe;" horiz-adv-x="1787" d="M86 639q0 41 27 70.5t69 29.5q41 0 70 -28t29 -68q0 -35 -22 -62.5t-56 -33.5q40 -70 141 -70q95 0 145 58.5t50 148.5q0 96 -52.5 144.5t-152.5 50.5q-29 1 -49.5 -2.5t-31.5 -7t-15 -3.5q-25 0 -25 19q0 7 6.5 13.5t16.5 6.5q3 0 32.5 -8t61.5 -8q92 0 138 57.5 t46 140.5t-42.5 133t-119.5 50q-90 0 -135 -72q34 -6 55 -32.5t21 -61.5q0 -40 -27.5 -67t-68.5 -27t-68 28t-27 68q0 74 83.5 125t215.5 51q135 0 221.5 -53t86.5 -146t-90.5 -144.5t-231.5 -51.5h-8v-4h8q96 0 171.5 -19.5t125 -66.5t49.5 -115q0 -103 -98 -159t-240 -56 q-136 0 -222.5 50.5t-86.5 121.5zM487 -10l897 1294l15 -8l-897 -1294zM1008 211l122 117q55 49 94.5 125.5t39.5 154.5q0 125 -103 191q126 3 222 -39t96 -117q0 -42 -35 -85.5t-79 -74.5t-111.5 -77.5t-106.5 -79.5l-119 -109h385v129l172 156h6v-285q50 0 79 7t30 7 q10 0 17 -6t7 -14q0 -7 -8 -12.5t-16 -5.5l-30 6q-31 6 -79 6v-74q0 -74 29.5 -98.5t101.5 -24.5v-8h-450v8q76 0 108.5 27.5t32.5 103.5v66h-401z" />
<glyph unicode="&#xbf;" horiz-adv-x="1040" d="M59 -119q0 47 17 88t43.5 71.5t69 58t81 46t93.5 36.5t93.5 28.5t92.5 23.5l8 201h12l9 -211q-265 -71 -265 -344q0 -144 67 -238t200 -94q88 0 149.5 39t95.5 101q-51 7 -83.5 47t-32.5 94q0 60 40 101.5t97 41.5q58 0 97.5 -43t39.5 -106q0 -114 -129 -201.5 t-324 -87.5q-204 0 -337.5 98t-133.5 250zM420 698q0 59 40.5 100.5t98.5 41.5t99.5 -41.5t41.5 -100.5q0 -58 -41 -98.5t-100 -40.5t-99 40.5t-40 98.5z" />
<glyph unicode="&#xc0;" horiz-adv-x="1363" d="M-74 0v12q33 0 63 7t54.5 17.5t48.5 30.5t41 37t36.5 46t31.5 49.5t29 56t25.5 56.5t25 59.5t24.5 56.5l363 846h12l450 -989q27 -59 51 -101t58 -84.5t76.5 -65t91.5 -22.5v-12h-674v12q109 0 142 69t-19 189l-70 156h-458l-17 -43q-143 -371 152 -371v-12h-537z M338 446h440l-225 512zM464 1639q-6 38 19 67q27 30 66.5 30t75.5 -32q22 -19 54 -62.5t87.5 -126t93.5 -135.5l-4 -4q-44 24 -114.5 60t-106 54.5t-73 41t-54.5 37.5q-38 32 -44 70z" />
<glyph unicode="&#xc1;" horiz-adv-x="1363" d="M-74 0v12q33 0 63 7t54.5 17.5t48.5 30.5t41 37t36.5 46t31.5 49.5t29 56t25.5 56.5t25 59.5t24.5 56.5l363 846h12l450 -989q27 -59 51 -101t58 -84.5t76.5 -65t91.5 -22.5v-12h-674v12q109 0 142 69t-19 189l-70 156h-458l-17 -43q-143 -371 152 -371v-12h-537z M338 446h440l-225 512zM510 1382q30 42 73 105t67 98t51 69.5t44 49.5q36 32 75.5 32t66.5 -30q25 -29 19 -67t-44 -70q-17 -15 -54.5 -37t-73.5 -41t-106 -54.5t-114 -58.5z" />
<glyph unicode="&#xc2;" horiz-adv-x="1363" d="M-74 0v12q33 0 63 7t54.5 17.5t48.5 30.5t41 37t36.5 46t31.5 49.5t29 56t25.5 56.5t25 59.5t24.5 56.5l363 846h12l450 -989q27 -59 51 -101t58 -84.5t76.5 -65t91.5 -22.5v-12h-674v12q109 0 142 69t-19 189l-70 156h-458l-17 -43q-143 -371 152 -371v-12h-537z M338 446h440l-225 512zM371 1368l229 295q27 41 74 41q44 0 74 -41l227 -295l-4 -4l-297 164l-299 -164z" />
<glyph unicode="&#xc3;" horiz-adv-x="1363" d="M-74 0v12q33 0 63 7t54.5 17.5t48.5 30.5t41 37t36.5 46t31.5 49.5t29 56t25.5 56.5t25 59.5t24.5 56.5l363 846h12l450 -989q27 -59 51 -101t58 -84.5t76.5 -65t91.5 -22.5v-12h-674v12q109 0 142 69t-19 189l-70 156h-458l-17 -43q-143 -371 152 -371v-12h-537z M338 446h440l-225 512zM367 1405q3 36 6.5 61t10.5 62.5t18.5 63.5t28.5 51t43 38t58 13q53 0 161 -55.5t163 -55.5q31 0 53 10.5t33 31.5t16 38.5t9 44.5l10 -2q-5 -57 -14 -100t-26.5 -89.5t-50 -72t-77.5 -25.5q-35 0 -79.5 17.5t-80.5 38t-81.5 38t-82.5 17.5 q-31 0 -52.5 -11t-32.5 -31.5t-15.5 -38.5t-7.5 -44h-10z" />
<glyph unicode="&#xc4;" horiz-adv-x="1363" d="M-74 0v12q33 0 63 7t54.5 17.5t48.5 30.5t41 37t36.5 46t31.5 49.5t29 56t25.5 56.5t25 59.5t24.5 56.5l363 846h12l450 -989q27 -59 51 -101t58 -84.5t76.5 -65t91.5 -22.5v-12h-674v12q109 0 142 69t-19 189l-70 156h-458l-17 -43q-143 -371 152 -371v-12h-537z M338 446h440l-225 512zM365 1540q0 52 35 88.5t87 36.5q51 0 88 -36.5t37 -88.5t-36.5 -88.5t-86.5 -36.5q-51 0 -87.5 36.5t-36.5 88.5zM729 1540q0 52 35.5 88.5t87.5 36.5q51 0 88 -36.5t37 -88.5t-37 -88.5t-88 -36.5t-87 36.5t-36 88.5z" />
<glyph unicode="&#xc5;" horiz-adv-x="1363" d="M-74 0v12q33 0 63 7t54.5 17.5t48.5 30.5t41 37t36.5 46t31.5 49.5t29 56t25.5 56.5t25 59.5t24.5 56.5l363 846h12l450 -989q27 -59 51 -101t58 -84.5t76.5 -65t91.5 -22.5v-12h-674v12q109 0 142 69t-19 189l-70 156h-458l-17 -43q-143 -371 152 -371v-12h-537z M338 446h440l-225 512zM436 1561q0 90 67 146t169 56t167.5 -56t65.5 -146q0 -89 -65.5 -145t-167.5 -56t-169 56t-67 145zM588 1561q0 -193 84 -193q80 0 80 193q0 192 -80 192q-84 0 -84 -192z" />
<glyph unicode="&#xc6;" horiz-adv-x="2039" d="M-84 0v12q44 0 87.5 13.5t79.5 33t76.5 55t69.5 65t67.5 78.5t61.5 80t60 83l545 780q-34 51 -154 51v15h1077l29 -396l-10 -2q-21 94 -54.5 160.5t-91 118.5t-147.5 77t-215 25h-148v-610h47q185 0 271.5 67.5t115.5 215.5h11v-580h-11q-29 147 -116 214t-271 67h-47 v-609h166q104 0 185 23t133 58.5t91.5 92.5t61 110t41.5 126l10 -2l-39 -422h-1089v12q61 0 96.5 9t55.5 34t26 58t6 92v248h-528l-31 -47q-59 -84 -90 -153t-32 -124t42 -86t129 -31v-12h-567zM477 471h516v588q0 93 -20 125z" />
<glyph unicode="&#xc7;" horiz-adv-x="1390" d="M88 627q0 195 91.5 346t254.5 234t371 83q52 0 120.5 -6t116 -11t107.5 -2.5t111 15.5l34 -416l-10 -2q-88 212 -201 310t-270 98q-95 0 -171.5 -35.5t-127.5 -95.5t-85 -143t-49 -175.5t-15 -195.5q0 -102 14.5 -193t47.5 -174.5t82.5 -144t124 -96t167.5 -35.5 q327 0 510 432h10l-68 -383q-239 -72 -499 -60l-101 -108q47 14 113 14q106 0 169.5 -41.5t63.5 -117.5q0 -46 -24 -80.5t-63.5 -54t-85.5 -29t-95 -9.5q-141 0 -237 66l8 10q67 -45 157 -45q75 0 118.5 41t43.5 105q0 58 -33.5 94.5t-95.5 36.5q-33 0 -76 -17l-6 4l123 134 q-301 20 -473 198.5t-172 448.5z" />
<glyph unicode="&#xc8;" horiz-adv-x="1290" d="M59 0v12q116 0 150.5 39.5t34.5 153.5v854q0 58 -6.5 91.5t-26.5 58t-55.5 33.5t-96.5 9v15h1078l28 -396l-10 -2q-21 94 -54.5 160.5t-91 118.5t-147.5 77t-215 25h-147v-610h47q185 0 271.5 67.5t115.5 215.5h10v-580h-10q-29 147 -116 214t-271 67h-47v-609h166 q104 0 185 23t133 58.5t91.5 92.5t61 110t41.5 126l10 -2l-39 -422h-1090zM437.5 1639q-5.5 38 19.5 67q25 30 65 30t76 -32q22 -19 52.5 -60.5t90 -130t90.5 -133.5l-4 -4q-47 25 -114.5 60t-104.5 54.5t-74 41.5t-55 37q-36 32 -41.5 70z" />
<glyph unicode="&#xc9;" horiz-adv-x="1290" d="M59 0v12q116 0 150.5 39.5t34.5 153.5v854q0 58 -6.5 91.5t-26.5 58t-55.5 33.5t-96.5 9v15h1078l28 -396l-10 -2q-21 94 -54.5 160.5t-91 118.5t-147.5 77t-215 25h-147v-610h47q185 0 271.5 67.5t115.5 215.5h10v-580h-10q-29 147 -116 214t-271 67h-47v-609h166 q104 0 185 23t133 58.5t91.5 92.5t61 110t41.5 126l10 -2l-39 -422h-1090zM518 1382q38 53 94 134.5t88 125t54 62.5q36 32 76 32t65 -30q25 -29 19 -67t-42 -70q-15 -12 -38.5 -27t-60.5 -34.5t-69.5 -36.5t-88 -45t-93.5 -48z" />
<glyph unicode="&#xca;" horiz-adv-x="1290" d="M59 0v12q116 0 150.5 39.5t34.5 153.5v854q0 58 -6.5 91.5t-26.5 58t-55.5 33.5t-96.5 9v15h1078l28 -396l-10 -2q-21 94 -54.5 160.5t-91 118.5t-147.5 77t-215 25h-147v-610h47q185 0 271.5 67.5t115.5 215.5h10v-580h-10q-29 147 -116 214t-271 67h-47v-609h166 q104 0 185 23t133 58.5t91.5 92.5t61 110t41.5 126l10 -2l-39 -422h-1090zM360 1368l230 295q27 41 74 41q43 0 73 -41l228 -295l-4 -4l-297 164l-299 -164z" />
<glyph unicode="&#xcb;" horiz-adv-x="1290" d="M59 0v12q116 0 150.5 39.5t34.5 153.5v854q0 58 -6.5 91.5t-26.5 58t-55.5 33.5t-96.5 9v15h1078l28 -396l-10 -2q-21 94 -54.5 160.5t-91 118.5t-147.5 77t-215 25h-147v-610h47q185 0 271.5 67.5t115.5 215.5h10v-580h-10q-29 147 -116 214t-271 67h-47v-609h166 q104 0 185 23t133 58.5t91.5 92.5t61 110t41.5 126l10 -2l-39 -422h-1090zM371 1540q0 52 35.5 88.5t87.5 36.5t88 -36t36 -89q0 -52 -35.5 -88.5t-86.5 -36.5t-88 36.5t-37 88.5zM735 1540q0 52 35.5 88.5t87.5 36.5t88.5 -36.5t36.5 -88.5t-36 -88.5t-87 -36.5t-88 36.5 t-37 88.5z" />
<glyph unicode="&#xcc;" horiz-adv-x="743" d="M59 0v12q116 0 150.5 39.5t34.5 153.5v854q0 58 -6.5 91.5t-26.5 58t-55.5 33.5t-96.5 9v15h625v-15q-116 0 -150 -39t-34 -153v-854q0 -59 6 -92t26 -58t55.5 -34t96.5 -9v-12h-625zM155 1639q-6 38 19 67q25 30 65 30t76 -32q17 -15 43.5 -49.5t50.5 -69.5t67 -98.5 t73 -106.5l-4 -4q-47 25 -114.5 60t-104.5 54.5t-74 41.5t-55 37q-36 32 -42 70z" />
<glyph unicode="&#xcd;" horiz-adv-x="743" d="M59 0v12q116 0 150.5 39.5t34.5 153.5v854q0 58 -6.5 91.5t-26.5 58t-55.5 33.5t-96.5 9v15h625v-15q-116 0 -150 -39t-34 -153v-854q0 -59 6 -92t26 -58t55.5 -34t96.5 -9v-12h-625zM186 1382q38 53 94 134.5t88 125t54 62.5q36 32 76 32t65 -30q25 -29 19.5 -67 t-41.5 -70q-18 -15 -56 -37.5t-73 -40.5t-107.5 -54.5t-114.5 -58.5z" />
<glyph unicode="&#xce;" horiz-adv-x="743" d="M59 0v12q116 0 150.5 39.5t34.5 153.5v854q0 58 -6.5 91.5t-26.5 58t-55.5 33.5t-96.5 9v15h625v-15q-116 0 -150 -39t-34 -153v-854q0 -59 6 -92t26 -58t55.5 -34t96.5 -9v-12h-625zM70 1368l227 295q30 41 74 41q46 0 73 -41l230 -295l-4 -4l-299 164l-297 -164z" />
<glyph unicode="&#xcf;" horiz-adv-x="743" d="M59 0v12q116 0 150.5 39.5t34.5 153.5v854q0 58 -6.5 91.5t-26.5 58t-55.5 33.5t-96.5 9v15h625v-15q-116 0 -150 -39t-34 -153v-854q0 -59 6 -92t26 -58t55.5 -34t96.5 -9v-12h-625zM66 1540q0 52 35 88.5t87 36.5t88.5 -36.5t36.5 -88.5t-36 -88.5t-87 -36.5 t-87.5 36.5t-36.5 88.5zM430 1540q0 52 35.5 88.5t87.5 36.5q53 0 89 -36.5t36 -88.5t-36 -88.5t-87 -36.5t-88 36.5t-37 88.5z" />
<glyph unicode="&#xd0;" horiz-adv-x="1538" d="M61 0v12q116 0 150.5 39.5t34.5 153.5v422h-160v18h160v414q0 58 -6.5 91.5t-26.5 58t-55.5 33.5t-96.5 9v15h656q337 0 534 -171.5t197 -461.5t-197 -461.5t-534 -171.5h-656zM500 14h190q126 0 221 50t150.5 137.5t82.5 195.5t27 236q0 101 -16.5 189.5t-53 168 t-91 136t-136 89.5t-182.5 33h-192v-604h354v-18h-354v-613z" />
<glyph unicode="&#xd1;" horiz-adv-x="1482" d="M31 0v12q47 0 80.5 5t61.5 22.5t45.5 37.5t31 62.5t20.5 83.5t11 116t5 144.5t1 182.5v276q0 164 -51.5 236.5t-194.5 72.5v15h414l745 -871v203q0 113 -1 182.5t-5 144.5t-11 116t-20.5 83.5t-31 62t-45.5 37t-61.5 22.5t-80.5 5v15h533v-15q-47 0 -80.5 -5t-61.5 -22.5 t-45.5 -37t-31 -62t-20.5 -83.5t-11 -116t-5 -144.5t-1 -182.5v-608l-11 -4l-903 1048v-368q0 -113 1 -182.5t5 -144.5t11 -116t20.5 -83.5t31 -62.5t45.5 -37.5t61.5 -22.5t80.5 -5v-12h-532zM465 1405q3 35 6.5 60.5t11 63t19 63.5t29 51t43.5 38t59 13q35 0 79.5 -17.5 t80 -38t81 -38t82.5 -17.5q31 0 53 11t33 31t15.5 38.5t7.5 44.5l10 -2q-3 -44 -8.5 -79.5t-18 -76t-29.5 -67.5t-46 -45.5t-66 -18.5q-43 0 -100 27.5t-116 55.5t-105 28q-31 0 -53 -11t-33 -32t-16 -38.5t-9 -43.5h-10z" />
<glyph unicode="&#xd2;" d="M86 633q0 139 52 260.5t142 209t218.5 137.5t275.5 50q148 0 276.5 -50t218.5 -137.5t141.5 -209t51.5 -260.5q0 -186 -88 -336.5t-245.5 -236t-354.5 -85.5t-354.5 85.5t-245.5 236t-88 336.5zM365 633q0 -102 12 -191.5t41.5 -173.5t75 -144t117.5 -96t163 -36 q92 0 163.5 36t117.5 95.5t76 143.5t42.5 174t12.5 192q0 103 -12 192.5t-42 173t-76 143t-118 95t-164 35.5t-164 -36t-117.5 -95.5t-74.5 -143.5t-41 -173t-12 -191zM548 1659q-6 38 19 67q27 30 66.5 30t75.5 -32q22 -19 53.5 -62t88 -126t93.5 -135l-4 -4 q-46 24 -115 59.5t-105.5 54.5t-73.5 41t-54 37q-38 32 -44 70z" />
<glyph unicode="&#xd3;" d="M86 633q0 139 52 260.5t142 209t218.5 137.5t275.5 50q148 0 276.5 -50t218.5 -137.5t141.5 -209t51.5 -260.5q0 -186 -88 -336.5t-245.5 -236t-354.5 -85.5t-354.5 85.5t-245.5 236t-88 336.5zM365 633q0 -102 12 -191.5t41.5 -173.5t75 -144t117.5 -96t163 -36 q92 0 163.5 36t117.5 95.5t76 143.5t42.5 174t12.5 192q0 103 -12 192.5t-42 173t-76 143t-118 95t-164 35.5t-164 -36t-117.5 -95.5t-74.5 -143.5t-41 -173t-12 -191zM594 1403q29 42 73 105.5t67.5 97.5t50.5 68.5t44 49.5q36 32 75.5 32t66.5 -30q25 -29 19 -67t-44 -70 q-17 -15 -54.5 -37t-74 -41t-105 -53.5t-114.5 -58.5z" />
<glyph unicode="&#xd4;" d="M86 633q0 139 52 260.5t142 209t218.5 137.5t275.5 50q148 0 276.5 -50t218.5 -137.5t141.5 -209t51.5 -260.5q0 -186 -88 -336.5t-245.5 -236t-354.5 -85.5t-354.5 85.5t-245.5 236t-88 336.5zM365 633q0 -102 12 -191.5t41.5 -173.5t75 -144t117.5 -96t163 -36 q92 0 163.5 36t117.5 95.5t76 143.5t42.5 174t12.5 192q0 103 -12 192.5t-42 173t-76 143t-118 95t-164 35.5t-164 -36t-117.5 -95.5t-74.5 -143.5t-41 -173t-12 -191zM471 1389l229 294q27 41 74 41q44 0 74 -41l227 -294l-4 -5l-297 164l-299 -164z" />
<glyph unicode="&#xd5;" d="M86 633q0 139 52 260.5t142 209t218.5 137.5t275.5 50q148 0 276.5 -50t218.5 -137.5t141.5 -209t51.5 -260.5q0 -186 -88 -336.5t-245.5 -236t-354.5 -85.5t-354.5 85.5t-245.5 236t-88 336.5zM365 633q0 -102 12 -191.5t41.5 -173.5t75 -144t117.5 -96t163 -36 q92 0 163.5 36t117.5 95.5t76 143.5t42.5 174t12.5 192q0 103 -12 192.5t-42 173t-76 143t-118 95t-164 35.5t-164 -36t-117.5 -95.5t-74.5 -143.5t-41 -173t-12 -191zM459 1425q3 35 6.5 60.5t11 63t19 63.5t29 51t43.5 38t59 13q44 0 101.5 -27.5t116.5 -55t105 -27.5 q31 0 53 11t33 31t15.5 38.5t7.5 44.5l10 -3q-3 -44 -8.5 -79.5t-18 -75.5t-29.5 -67.5t-46 -45.5t-66 -18q-43 0 -100 27.5t-116 55t-105 27.5q-31 0 -53 -11t-33 -32t-16 -38.5t-9 -43.5h-10z" />
<glyph unicode="&#xd6;" d="M86 633q0 139 52 260.5t142 209t218.5 137.5t275.5 50q148 0 276.5 -50t218.5 -137.5t141.5 -209t51.5 -260.5q0 -186 -88 -336.5t-245.5 -236t-354.5 -85.5t-354.5 85.5t-245.5 236t-88 336.5zM365 633q0 -102 12 -191.5t41.5 -173.5t75 -144t117.5 -96t163 -36 q92 0 163.5 36t117.5 95.5t76 143.5t42.5 174t12.5 192q0 103 -12 192.5t-42 173t-76 143t-118 95t-164 35.5t-164 -36t-117.5 -95.5t-74.5 -143.5t-41 -173t-12 -191zM469 1561q0 52 35.5 88.5t87.5 36.5q51 0 88 -36.5t37 -88.5t-36.5 -88.5t-86.5 -36.5q-51 0 -88 36.5 t-37 88.5zM834 1561q0 52 35 88.5t87 36.5q51 0 88 -36.5t37 -88.5t-37 -88.5t-88 -36.5t-86.5 36.5t-35.5 88.5z" />
<glyph unicode="&#xd7;" horiz-adv-x="948" d="M94 133l367 367l-367 366l15 13l366 -365l365 365l14 -13l-367 -366l367 -367l-14 -12l-365 366l-366 -366z" />
<glyph unicode="&#xd8;" d="M88 633q0 139 51.5 260.5t141.5 209t218.5 137.5t276.5 50q246 0 428 -135l131 154l17 -15l-129 -151q114 -90 177.5 -222.5t63.5 -287.5q0 -186 -88 -336.5t-245.5 -236t-354.5 -85.5q-247 0 -430 134l-131 -154l-14 12l129 154q-115 90 -178.5 222t-63.5 290zM365 633 q0 -230 67 -391l678 800q-102 230 -334 230q-92 0 -164 -36t-118 -95.5t-75.5 -143t-41.5 -173t-12 -191.5zM440 221q102 -229 336 -229q92 0 163.5 36t117 95.5t75.5 143.5t42 173.5t12 192.5q0 233 -68 387z" />
<glyph unicode="&#xd9;" horiz-adv-x="1429" d="M35 1251v15h624v-15q-60 0 -96.5 -11.5t-55.5 -39.5t-25.5 -63.5t-6.5 -94.5v-659q0 -377 318 -377q170 0 271 106t101 304v207q0 107 -1 177t-6 140t-12 111t-20.5 80t-31.5 59t-45 35.5t-60 20.5t-78 5v15h529v-15q-37 0 -65 -3.5t-52.5 -13.5t-42.5 -22t-32.5 -36 t-24 -47.5t-16.5 -64.5t-11 -80t-6.5 -100.5t-3 -118.5t-0.5 -142v-207q0 -216 -118.5 -328.5t-342.5 -112.5q-104 0 -192 24.5t-160 76t-113 141.5t-41 211v614q0 59 -6.5 94.5t-25.5 63.5t-55.5 39.5t-96.5 11.5zM513 1639q-6 38 19 67q27 30 66.5 30t75.5 -32 q22 -19 54 -62.5t87.5 -126t93.5 -135.5l-4 -4q-44 24 -114.5 60t-106 54.5t-73 41t-54.5 37.5q-38 32 -44 70z" />
<glyph unicode="&#xda;" horiz-adv-x="1429" d="M35 1251v15h624v-15q-60 0 -96.5 -11.5t-55.5 -39.5t-25.5 -63.5t-6.5 -94.5v-659q0 -377 318 -377q170 0 271 106t101 304v207q0 107 -1 177t-6 140t-12 111t-20.5 80t-31.5 59t-45 35.5t-60 20.5t-78 5v15h529v-15q-37 0 -65 -3.5t-52.5 -13.5t-42.5 -22t-32.5 -36 t-24 -47.5t-16.5 -64.5t-11 -80t-6.5 -100.5t-3 -118.5t-0.5 -142v-207q0 -216 -118.5 -328.5t-342.5 -112.5q-104 0 -192 24.5t-160 76t-113 141.5t-41 211v614q0 59 -6.5 94.5t-25.5 63.5t-55.5 39.5t-96.5 11.5zM610 1382q38 53 94 134.5t88 125t54 62.5q36 32 76 32 t65 -30q25 -29 19.5 -67t-41.5 -70q-18 -15 -56 -37.5t-73 -40.5t-107.5 -54.5t-114.5 -58.5z" />
<glyph unicode="&#xdb;" horiz-adv-x="1429" d="M35 1251v15h624v-15q-60 0 -96.5 -11.5t-55.5 -39.5t-25.5 -63.5t-6.5 -94.5v-659q0 -377 318 -377q170 0 271 106t101 304v207q0 107 -1 177t-6 140t-12 111t-20.5 80t-31.5 59t-45 35.5t-60 20.5t-78 5v15h529v-15q-37 0 -65 -3.5t-52.5 -13.5t-42.5 -22t-32.5 -36 t-24 -47.5t-16.5 -64.5t-11 -80t-6.5 -100.5t-3 -118.5t-0.5 -142v-207q0 -216 -118.5 -328.5t-342.5 -112.5q-104 0 -192 24.5t-160 76t-113 141.5t-41 211v614q0 59 -6.5 94.5t-25.5 63.5t-55.5 39.5t-96.5 11.5zM451 1368l227 295q30 41 74 41q46 0 73 -41l230 -295 l-4 -4l-299 164l-297 -164z" />
<glyph unicode="&#xdc;" horiz-adv-x="1429" d="M35 1251v15h624v-15q-60 0 -96.5 -11.5t-55.5 -39.5t-25.5 -63.5t-6.5 -94.5v-659q0 -377 318 -377q170 0 271 106t101 304v207q0 107 -1 177t-6 140t-12 111t-20.5 80t-31.5 59t-45 35.5t-60 20.5t-78 5v15h529v-15q-37 0 -65 -3.5t-52.5 -13.5t-42.5 -22t-32.5 -36 t-24 -47.5t-16.5 -64.5t-11 -80t-6.5 -100.5t-3 -118.5t-0.5 -142v-207q0 -216 -118.5 -328.5t-342.5 -112.5q-104 0 -192 24.5t-160 76t-113 141.5t-41 211v614q0 59 -6.5 94.5t-25.5 63.5t-55.5 39.5t-96.5 11.5zM453 1540q0 52 35 88.5t87 36.5q51 0 88 -36.5t37 -88.5 t-36 -88.5t-86 -36.5q-51 0 -88 36.5t-37 88.5zM817 1540q0 52 35.5 88.5t87.5 36.5q51 0 88 -36.5t37 -88.5t-37 -88.5t-88 -36.5t-87 36.5t-36 88.5z" />
<glyph unicode="&#xdd;" horiz-adv-x="1366" d="M-23 1251v15h664v-15q-109 0 -132 -60.5t40 -164.5l256 -428h4l106 180q85 145 120.5 223.5t35.5 128.5q0 121 -174 121v15h535v-15q-89 0 -154 -33.5t-119 -99.5q-31 -36 -74.5 -102.5t-129.5 -206.5q-16 -27 -25 -41l-107 -178v-344q0 -126 41.5 -180t163.5 -54v-12 h-663v12q63 0 103.5 13.5t62.5 44.5t30 72t8 104v268l-305 500q-71 114 -138 175.5t-149 61.5zM573 1382q38 53 94 134.5t88 125t54 62.5q36 32 76 32t65 -30q25 -29 19.5 -67t-41.5 -70q-15 -12 -38.5 -27t-60.5 -34.5t-69.5 -36.5t-88 -45t-93.5 -48z" />
<glyph unicode="&#xde;" horiz-adv-x="1275" d="M59 0v12q116 0 150.5 39.5t34.5 153.5v854q0 58 -6.5 91.5t-26.5 58t-55.5 33.5t-96.5 9v15h625v-15q-116 0 -150 -39t-34 -153v-49h188q141 0 246 -28t167 -78t92 -115t30 -144q0 -166 -129.5 -264t-405.5 -98h-92v14h47q81 0 142 29t96 79t52 110t17 130q0 55 -10 104 t-33.5 94.5t-58 78t-87.5 52t-118 19.5h-143v-788q0 -59 6 -92t26 -58t55.5 -34t96.5 -9v-12h-625z" />
<glyph unicode="&#xdf;" horiz-adv-x="1273" d="M31 811v25h174v139q0 178 118 276.5t302 98.5q86 0 157.5 -25.5t119.5 -66t84 -97t56 -111.5t31 -116q-14 -2 -57.5 -9t-64 -11.5t-58 -13.5t-57 -20t-42 -27.5t-32.5 -39.5t-10 -51q0 -42 26 -78.5t68 -64t92.5 -55t100.5 -58.5t92 -67t68 -87.5t26 -113.5 q0 -116 -91 -188.5t-270 -72.5q-138 0 -293 37l-12 262l10 3q3 -7 14.5 -33t16.5 -38t18 -37.5t22 -39.5t24.5 -36t29.5 -34.5t34 -28t40.5 -23.5t46 -13.5t53.5 -5.5q49 0 85 15.5t53.5 40.5t25.5 49.5t8 49.5q0 44 -25.5 82t-65.5 66.5t-89 56.5t-98 58.5t-89 64t-65.5 81 t-25.5 103.5q0 99 74 156.5t210 91.5q-4 40 -8 71.5t-13 79t-20 83t-30.5 75t-43.5 65t-58.5 42t-76.5 16.5q-87 0 -132.5 -66.5t-45.5 -178.5v-1092h-397v12q86 0 125 32t39 114v653h-174z" />
<glyph unicode="&#xe0;" horiz-adv-x="1048" d="M78 211q0 117 95.5 176t244.5 59q122 0 229 -34v206q0 108 -39 168t-137 60q-122 0 -190 -103q36 -13 58.5 -46t22.5 -72q0 -53 -35 -88t-89 -35q-56 0 -89.5 39t-33.5 92q0 93 103.5 159t262.5 66q59 0 114.5 -10t108 -33.5t91.5 -57.5t62.5 -86.5t23.5 -117.5v-451 q0 -71 57 -71q70 0 137 119l12 -9q-43 -73 -97.5 -116t-139.5 -43q-77 0 -128.5 37.5t-66.5 101.5q-103 -144 -293 -144q-128 0 -206 63.5t-78 170.5zM280 1229q-6 38 19 67q27 30 66 30t75 -32q22 -19 53.5 -61.5t89 -127t93.5 -134.5l-4 -4q-46 24 -115 59.5t-105.5 54.5 t-73.5 41t-54 37q-38 32 -44 70zM319 219q0 -89 38 -140.5t108 -51.5q99 0 182 108v260q-97 27 -145 27q-88 0 -135.5 -51t-47.5 -152z" />
<glyph unicode="&#xe1;" horiz-adv-x="1048" d="M78 211q0 117 95.5 176t244.5 59q122 0 229 -34v206q0 108 -39 168t-137 60q-122 0 -190 -103q36 -13 58.5 -46t22.5 -72q0 -53 -35 -88t-89 -35q-56 0 -89.5 39t-33.5 92q0 93 103.5 159t262.5 66q59 0 114.5 -10t108 -33.5t91.5 -57.5t62.5 -86.5t23.5 -117.5v-451 q0 -71 57 -71q70 0 137 119l12 -9q-43 -73 -97.5 -116t-139.5 -43q-77 0 -128.5 37.5t-66.5 101.5q-103 -144 -293 -144q-128 0 -206 63.5t-78 170.5zM319 219q0 -89 38 -140.5t108 -51.5q99 0 182 108v260q-97 27 -145 27q-88 0 -135.5 -51t-47.5 -152zM334 973 q39 53 94 134t87 124.5t54 62.5q36 32 76.5 32t65.5 -30q25 -29 19 -67t-42 -70q-18 -15 -56 -37t-73 -40.5t-106.5 -54.5t-114.5 -58z" />
<glyph unicode="&#xe2;" horiz-adv-x="1048" d="M78 211q0 117 95.5 176t244.5 59q122 0 229 -34v206q0 108 -39 168t-137 60q-122 0 -190 -103q36 -13 58.5 -46t22.5 -72q0 -53 -35 -88t-89 -35q-56 0 -89.5 39t-33.5 92q0 93 103.5 159t262.5 66q59 0 114.5 -10t108 -33.5t91.5 -57.5t62.5 -86.5t23.5 -117.5v-451 q0 -71 57 -71q70 0 137 119l12 -9q-43 -73 -97.5 -116t-139.5 -43q-77 0 -128.5 37.5t-66.5 101.5q-103 -144 -293 -144q-128 0 -206 63.5t-78 170.5zM199 958l227 295q30 41 74 41q46 0 73 -41l230 -295l-4 -4l-299 164l-297 -164zM319 219q0 -89 38 -140.5t108 -51.5 q99 0 182 108v260q-97 27 -145 27q-88 0 -135.5 -51t-47.5 -152z" />
<glyph unicode="&#xe3;" horiz-adv-x="1048" d="M78 211q0 117 95.5 176t244.5 59q122 0 229 -34v206q0 108 -39 168t-137 60q-122 0 -190 -103q36 -13 58.5 -46t22.5 -72q0 -53 -35 -88t-89 -35q-56 0 -89.5 39t-33.5 92q0 93 103.5 159t262.5 66q59 0 114.5 -10t108 -33.5t91.5 -57.5t62.5 -86.5t23.5 -117.5v-451 q0 -71 57 -71q70 0 137 119l12 -9q-43 -73 -97.5 -116t-139.5 -43q-77 0 -128.5 37.5t-66.5 101.5q-103 -144 -293 -144q-128 0 -206 63.5t-78 170.5zM195 995q3 36 6.5 61t10.5 62.5t18.5 63.5t28.5 51t43 38t58 13q53 0 161 -55t163 -55q31 0 53 10.5t33 31t16 38.5t9 44 l10 -2q-5 -57 -14 -100t-26.5 -89t-50 -71.5t-77.5 -25.5q-44 0 -102 27.5t-117 55t-105 27.5q-31 0 -52.5 -11t-32.5 -31.5t-15.5 -38.5t-7.5 -44h-10zM319 219q0 -89 38 -140.5t108 -51.5q99 0 182 108v260q-97 27 -145 27q-88 0 -135.5 -51t-47.5 -152z" />
<glyph unicode="&#xe4;" horiz-adv-x="1048" d="M78 211q0 117 95.5 176t244.5 59q122 0 229 -34v206q0 108 -39 168t-137 60q-122 0 -190 -103q36 -13 58.5 -46t22.5 -72q0 -53 -35 -88t-89 -35q-56 0 -89.5 39t-33.5 92q0 93 103.5 159t262.5 66q59 0 114.5 -10t108 -33.5t91.5 -57.5t62.5 -86.5t23.5 -117.5v-451 q0 -71 57 -71q70 0 137 119l12 -9q-43 -73 -97.5 -116t-139.5 -43q-77 0 -128.5 37.5t-66.5 101.5q-103 -144 -293 -144q-128 0 -206 63.5t-78 170.5zM193 1130q0 52 35 88.5t87 36.5q51 0 88 -36.5t37 -88.5t-36.5 -88t-86.5 -36q-51 0 -87.5 36t-36.5 88zM319 219 q0 -89 38 -140.5t108 -51.5q99 0 182 108v260q-97 27 -145 27q-88 0 -135.5 -51t-47.5 -152zM557 1130q0 52 35.5 88.5t87.5 36.5q51 0 88 -36.5t37 -88.5t-37 -88t-88 -36t-87 36t-36 88z" />
<glyph unicode="&#xe5;" horiz-adv-x="1048" d="M78 211q0 117 95.5 176t244.5 59q122 0 229 -34v206q0 108 -39 168t-137 60q-122 0 -190 -103q36 -13 58.5 -46t22.5 -72q0 -53 -35 -88t-89 -35q-56 0 -89.5 39t-33.5 92q0 93 103.5 159t262.5 66q59 0 114.5 -10t108 -33.5t91.5 -57.5t62.5 -86.5t23.5 -117.5v-451 q0 -71 57 -71q70 0 137 119l12 -9q-43 -73 -97.5 -116t-139.5 -43q-77 0 -128.5 37.5t-66.5 101.5q-103 -144 -293 -144q-128 0 -206 63.5t-78 170.5zM258 1151q0 90 66 146.5t168 56.5t168.5 -56.5t66.5 -146.5q0 -89 -66.5 -145t-168.5 -56t-168 56t-66 145zM319 219 q0 -89 38 -140.5t108 -51.5q99 0 182 108v260q-97 27 -145 27q-88 0 -135.5 -51t-47.5 -152zM410 1151q0 -193 82 -193q81 0 81 193q0 37 -2.5 65.5t-10 60t-25 49t-43.5 17.5q-82 0 -82 -192z" />
<glyph unicode="&#xe6;" horiz-adv-x="1552" d="M76 211q0 117 95.5 176t244.5 59q122 0 229 -34v206q0 109 -38.5 168.5t-137.5 59.5q-124 0 -188 -103q36 -13 58.5 -46t22.5 -72q0 -52 -35.5 -87.5t-88.5 -35.5q-56 0 -89.5 39t-33.5 92q0 93 102.5 159t261.5 66q206 0 303 -117q117 117 295 117q111 0 200 -44 t144 -134.5t58 -214.5h-602q-5 -207 69 -326t217 -119q100 0 176.5 56.5t124.5 136.5l13 -8q-142 -228 -404 -228q-247 0 -358 181q-133 -181 -348 -181q-133 0 -212 63.5t-79 170.5zM317 225q0 -92 43.5 -145t118.5 -53q126 0 226 147q-57 96 -60 221q-97 27 -143 27 q-87 0 -136 -50.5t-49 -146.5zM877 483h366q0 39 -3 79t-13.5 93.5t-28 93t-50 67.5t-75.5 28q-46 0 -83 -31.5t-60 -84t-36.5 -115t-16.5 -130.5z" />
<glyph unicode="&#xe7;" horiz-adv-x="960" d="M76 412q0 102 38 187t102 141t147 87t174 31q155 0 251.5 -79t96.5 -179q0 -61 -36.5 -100t-92.5 -39q-55 0 -92 38t-37 93q0 49 30.5 85t77.5 44q-20 52 -63 87.5t-109 35.5q-62 0 -110 -34.5t-75.5 -94t-41.5 -130.5t-14 -151q0 -195 73 -304.5t203 -109.5 q94 0 169 54.5t120 138.5l12 -6q-66 -109 -171.5 -171.5t-248.5 -55.5l-100 -111q47 14 113 14q106 0 169.5 -41.5t63.5 -117.5q0 -46 -24 -80.5t-63.5 -54t-85.5 -29t-95 -9.5q-145 0 -238 66l6 10q70 -45 160 -45q74 0 118 41t44 105q0 58 -34 94.5t-95 36.5 q-36 0 -78 -17l-4 4l121 134q-176 17 -278.5 139t-102.5 293z" />
<glyph unicode="&#xe8;" horiz-adv-x="997" d="M76 420q0 192 126 315t318 123q113 0 202.5 -44t144 -134.5t57.5 -214.5h-602q-5 -207 69 -326t217 -119q100 0 176.5 56.5t124.5 136.5l13 -8q-142 -228 -402 -228q-106 0 -191.5 36.5t-140 98.5t-83.5 141t-29 167zM294 1229q-6 38 19 67q27 30 66.5 30t75.5 -32 q22 -19 53.5 -62t88 -126t93.5 -135l-4 -4q-46 24 -115 59.5t-105.5 54.5t-73.5 41t-54 37q-38 32 -44 70zM322 483h362q0 40 -2.5 79t-12.5 93t-26.5 93.5t-49 67.5t-75.5 28q-46 0 -83 -31.5t-60 -84t-36.5 -115t-16.5 -130.5z" />
<glyph unicode="&#xe9;" horiz-adv-x="997" d="M76 420q0 192 126 315t318 123q113 0 202.5 -44t144 -134.5t57.5 -214.5h-602q-5 -207 69 -326t217 -119q100 0 176.5 56.5t124.5 136.5l13 -8q-142 -228 -402 -228q-106 0 -191.5 36.5t-140 98.5t-83.5 141t-29 167zM322 483h362q0 40 -2.5 79t-12.5 93t-26.5 93.5 t-49 67.5t-75.5 28q-46 0 -83 -31.5t-60 -84t-36.5 -115t-16.5 -130.5zM342 973q38 52 94 133.5t88 125t54 62.5q36 32 76 32t65 -30q25 -29 19 -67t-42 -70q-18 -15 -56 -37t-73 -40.5t-106.5 -54.5t-114.5 -58z" />
<glyph unicode="&#xea;" horiz-adv-x="997" d="M76 420q0 192 126 315t318 123q113 0 202.5 -44t144 -134.5t57.5 -214.5h-602q-5 -207 69 -326t217 -119q100 0 176.5 56.5t124.5 136.5l13 -8q-142 -228 -402 -228q-106 0 -191.5 36.5t-140 98.5t-83.5 141t-29 167zM211 958l229 295q27 41 74 41q44 0 74 -41l227 -295 l-4 -4l-297 164l-299 -164zM322 483h362q0 40 -2.5 79t-12.5 93t-26.5 93.5t-49 67.5t-75.5 28q-46 0 -83 -31.5t-60 -84t-36.5 -115t-16.5 -130.5z" />
<glyph unicode="&#xeb;" horiz-adv-x="997" d="M76 420q0 192 126 315t318 123q113 0 202.5 -44t144 -134.5t57.5 -214.5h-602q-5 -207 69 -326t217 -119q100 0 176.5 56.5t124.5 136.5l13 -8q-142 -228 -402 -228q-106 0 -191.5 36.5t-140 98.5t-83.5 141t-29 167zM211 1130q0 52 35.5 88.5t87.5 36.5q51 0 88 -36.5 t37 -88.5t-36.5 -88t-86.5 -36q-51 0 -88 36t-37 88zM322 483h362q0 40 -2.5 79t-12.5 93t-26.5 93.5t-49 67.5t-75.5 28q-46 0 -83 -31.5t-60 -84t-36.5 -115t-16.5 -130.5zM575 1130q0 52 35.5 88.5t87.5 36.5q51 0 88 -36.5t37 -88.5t-37 -88t-88 -36t-87 36t-36 88z" />
<glyph unicode="&#xec;" horiz-adv-x="591" d="M43 0v12q82 0 112.5 32t30.5 110v508q0 78 -30.5 109.5t-112.5 31.5v12l377 41v-702q0 -78 30.5 -110t112.5 -32v-12h-520zM67 1229q-6 38 19 67q27 30 66 30t75 -32q22 -19 53.5 -61.5t89 -127t93.5 -134.5l-4 -4q-46 24 -115 59.5t-105.5 54.5t-73.5 41t-54 37 q-38 32 -44 70z" />
<glyph unicode="&#xed;" horiz-adv-x="591" d="M43 0v12q82 0 112.5 32t30.5 110v508q0 78 -30.5 109.5t-112.5 31.5v12l377 41v-702q0 -78 30.5 -110t112.5 -32v-12h-520zM102 973q38 52 94 133.5t88 125t54 62.5q36 32 76 32t65 -30q25 -29 19.5 -67t-41.5 -70q-18 -15 -56 -37t-74 -40.5t-106 -54t-115 -58.5z" />
<glyph unicode="&#xee;" horiz-adv-x="593" d="M-14 958l227 295q30 41 74 41q46 0 73 -41l230 -295l-4 -4l-299 164l-297 -164zM45 0v12q82 0 112.5 32t30.5 110v508q0 78 -30.5 109.5t-112.5 31.5v12l377 41v-702q0 -78 30.5 -110t112.5 -32v-12h-520z" />
<glyph unicode="&#xef;" horiz-adv-x="591" d="M-20 1130q0 52 35 88.5t87 36.5q51 0 88 -36.5t37 -88.5t-36.5 -88t-86.5 -36q-51 0 -87.5 36t-36.5 88zM43 0v12q82 0 112.5 32t30.5 110v508q0 78 -30.5 109.5t-112.5 31.5v12l377 41v-702q0 -78 30.5 -110t112.5 -32v-12h-520zM344 1130q0 52 35.5 88.5t87.5 36.5 q51 0 88 -36.5t37 -88.5t-37 -88t-88 -36t-87 36t-36 88z" />
<glyph unicode="&#xf0;" horiz-adv-x="1103" d="M78 395q0 130 61.5 227t163 145t227.5 48q108 0 199 -43q-60 213 -197 365l-309 -170l-10 14l307 168q-102 111 -256 194l6 13q188 -102 297 -182l234 129l8 -17l-225 -123q434 -316 434 -694q0 -76 -16 -145.5t-53 -133.5t-91.5 -111.5t-136.5 -75.5t-184 -28 q-216 0 -337.5 116.5t-121.5 303.5zM324 381q0 -73 9.5 -137t32 -123.5t66.5 -94t105 -34.5q66 0 114 41t72 110.5t34.5 143.5t10.5 159q0 170 -35 302q-62 40 -143 40q-71 0 -123.5 -31t-83 -87.5t-45 -128.5t-14.5 -160z" />
<glyph unicode="&#xf1;" horiz-adv-x="1155" d="M41 0v12q82 0 112.5 32t30.5 110v508q0 78 -30.5 109.5t-112.5 31.5v12l373 41v-174q167 176 334 176q107 0 175 -66.5t68 -203.5v-434q0 -78 31 -110t113 -32v-12h-510v12q73 0 103 32.5t30 109.5v452q0 83 -35 125.5t-100 42.5q-59 0 -107.5 -29.5t-97.5 -78.5v-512 q0 -77 30 -109.5t103 -32.5v-12h-510zM285 995q3 35 6.5 60.5t11 63t19 63.5t29 51t43.5 38t59 13q44 0 101.5 -27.5t116.5 -55t105 -27.5q25 0 44.5 8t30.5 19t18.5 29t10.5 33t5 35l10 -2q-3 -44 -8.5 -79.5t-18 -75.5t-29.5 -67.5t-46 -45.5t-66 -18q-43 0 -100 27.5 t-116 55t-105 27.5q-31 0 -53 -11t-33 -32t-16 -38.5t-9 -43.5h-10z" />
<glyph unicode="&#xf2;" horiz-adv-x="1087" d="M76 418q0 102 38.5 186.5t103.5 139t149 84.5t176 30t176 -30t149 -84.5t103.5 -139t38.5 -186.5q0 -135 -66.5 -237.5t-171.5 -153t-229 -50.5t-229 50.5t-171.5 153t-66.5 237.5zM318.5 1229q-5.5 38 19.5 67q25 30 65 30t76 -32q17 -15 44 -49.5t50 -68.5t67 -98.5 t73 -106.5l-4 -4q-52 28 -143.5 75t-137 72.5t-68.5 44.5q-36 32 -41.5 70zM328 418q0 -424 215 -424q217 0 217 424t-217 424q-215 0 -215 -424z" />
<glyph unicode="&#xf3;" horiz-adv-x="1087" d="M76 418q0 102 38.5 186.5t103.5 139t149 84.5t176 30t176 -30t149 -84.5t103.5 -139t38.5 -186.5q0 -135 -66.5 -237.5t-171.5 -153t-229 -50.5t-229 50.5t-171.5 153t-66.5 237.5zM328 418q0 -424 215 -424q217 0 217 424t-217 424q-215 0 -215 -424zM379 973 q29 42 73 105.5t67.5 97.5t50.5 68.5t44 49.5q36 32 75.5 32t66.5 -30q25 -29 19 -67t-44 -70q-17 -15 -54.5 -37t-74 -41t-105 -53.5t-114.5 -58.5z" />
<glyph unicode="&#xf4;" horiz-adv-x="1087" d="M76 418q0 102 38.5 186.5t103.5 139t149 84.5t176 30t176 -30t149 -84.5t103.5 -139t38.5 -186.5q0 -135 -66.5 -237.5t-171.5 -153t-229 -50.5t-229 50.5t-171.5 153t-66.5 237.5zM242 958l229 295q27 41 74 41q43 0 73 -41l228 -295l-4 -4l-297 164l-299 -164zM328 418 q0 -424 215 -424q217 0 217 424t-217 424q-215 0 -215 -424z" />
<glyph unicode="&#xf5;" horiz-adv-x="1087" d="M76 418q0 102 38.5 186.5t103.5 139t149 84.5t176 30t176 -30t149 -84.5t103.5 -139t38.5 -186.5q0 -135 -66.5 -237.5t-171.5 -153t-229 -50.5t-229 50.5t-171.5 153t-66.5 237.5zM238 995q3 35 6.5 60.5t11 63t19 63.5t29 51t43.5 38t59 13q44 0 101.5 -27.5t116.5 -55 t105 -27.5q25 0 44.5 8t30.5 19t18.5 29t10.5 33t5 35l10 -2q-3 -44 -8.5 -79.5t-18 -75.5t-29.5 -67.5t-46 -45.5t-66 -18q-43 0 -100.5 27.5t-116.5 55t-105 27.5q-31 0 -52.5 -11t-33 -32t-16 -38.5t-8.5 -43.5h-10zM328 418q0 -424 215 -424q217 0 217 424t-217 424 q-215 0 -215 -424z" />
<glyph unicode="&#xf6;" horiz-adv-x="1087" d="M76 418q0 102 38.5 186.5t103.5 139t149 84.5t176 30t176 -30t149 -84.5t103.5 -139t38.5 -186.5q0 -135 -66.5 -237.5t-171.5 -153t-229 -50.5t-229 50.5t-171.5 153t-66.5 237.5zM238 1130q0 52 35 88.5t87 36.5t88.5 -36.5t36.5 -88.5t-36 -88t-87 -36t-87.5 36 t-36.5 88zM328 418q0 -424 215 -424q217 0 217 424t-217 424q-215 0 -215 -424zM602 1130q0 52 35.5 88.5t87.5 36.5q53 0 89 -36.5t36 -88.5t-36 -88t-87 -36t-88 36t-37 88z" />
<glyph unicode="&#xf7;" horiz-adv-x="1187" d="M137 492v20h912v-20h-912zM498 166q0 40 28 67t68 27t68 -27t28 -67q0 -39 -28.5 -67.5t-67.5 -28.5t-67.5 28.5t-28.5 67.5zM498 840q0 40 28 68t68 28t68 -28t28 -68q0 -39 -28.5 -68t-67.5 -29t-67.5 29t-28.5 68z" />
<glyph unicode="&#xf8;" horiz-adv-x="1087" d="M76 418q0 102 38.5 186.5t103.5 139t149 84.5t176 30q167 0 295 -92l94 108l12 -10l-94 -108q75 -57 117.5 -144t42.5 -194q0 -135 -66.5 -237.5t-171.5 -153t-229 -50.5q-169 0 -295 91l-94 -107l-13 10l92 107q-157 124 -157 340zM328 418q0 -135 24 -211l375 440 q-48 195 -184 195q-215 0 -215 -424zM358 188q45 -194 185 -194q217 0 217 424q0 126 -27 211z" />
<glyph unicode="&#xf9;" horiz-adv-x="1140" d="M20 803v12l377 41v-627q0 -168 135 -168q58 0 106 29t99 78v489q0 78 -30 112t-103 34v12l367 41v-698q0 -79 31 -112.5t112 -33.5v-12h-373v152q-170 -175 -333 -175q-107 0 -175.5 67t-68.5 204v409q0 79 -31.5 112.5t-112.5 33.5zM300 1229q-6 38 19 67q25 30 65.5 30 t76.5 -32q17 -15 43.5 -49.5t50 -69t66.5 -98t73 -106.5l-4 -4q-51 27 -143.5 74.5t-137 73t-67.5 44.5q-36 32 -42 70z" />
<glyph unicode="&#xfa;" horiz-adv-x="1140" d="M20 803v12l377 41v-627q0 -168 135 -168q58 0 106 29t99 78v489q0 78 -30 112t-103 34v12l367 41v-698q0 -79 31 -112.5t112 -33.5v-12h-373v152q-170 -175 -333 -175q-107 0 -175.5 67t-68.5 204v409q0 79 -31.5 112.5t-112.5 33.5zM397 973q28 40 73 105t68.5 98.5 t50.5 68t44 49.5q36 32 75 32t66 -30q25 -29 19.5 -67t-43.5 -70q-22 -19 -66 -44t-140.5 -73.5t-142.5 -72.5z" />
<glyph unicode="&#xfb;" horiz-adv-x="1140" d="M20 803v12l377 41v-627q0 -168 135 -168q58 0 106 29t99 78v489q0 78 -30 112t-103 34v12l367 41v-698q0 -79 31 -112.5t112 -33.5v-12h-373v152q-170 -175 -333 -175q-107 0 -175.5 67t-68.5 204v409q0 79 -31.5 112.5t-112.5 33.5zM248 958l229 295q27 41 74 41 q44 0 74 -41l227 -295l-4 -4l-297 164l-299 -164z" />
<glyph unicode="&#xfc;" horiz-adv-x="1140" d="M20 803v12l377 41v-627q0 -168 135 -168q58 0 106 29t99 78v489q0 78 -30 112t-103 34v12l367 41v-698q0 -79 31 -112.5t112 -33.5v-12h-373v152q-170 -175 -333 -175q-107 0 -175.5 67t-68.5 204v409q0 79 -31.5 112.5t-112.5 33.5zM246 1130q0 52 35.5 88.5t87.5 36.5 q51 0 88 -36.5t37 -88.5t-36.5 -88t-86.5 -36q-51 0 -88 36t-37 88zM610 1130q0 52 35.5 88.5t87.5 36.5q51 0 88 -36.5t37 -88.5t-37 -88t-88 -36t-87 36t-36 88z" />
<glyph unicode="&#xfd;" horiz-adv-x="1009" d="M-18 821v15h567v-15q-68 0 -101 -21t-32.5 -60t24.5 -95l174 -401l74 174q94 236 94 301q0 102 -131 102v15h396v-15q-135 0 -209 -123q-7 -11 -14.5 -24t-17 -32.5t-16.5 -33.5t-19.5 -43t-19.5 -44.5t-24 -55t-25 -57.5l-208 -476q-128 -288 -312 -288q-100 0 -100 80 q0 42 33.5 64t85 30.5t106 17.5t105 38t73.5 79l17 37l-305 639q-43 97 -92 144.5t-123 47.5zM399 973q38 52 94 133.5t88 125t54 62.5q36 32 76 32t65 -30q25 -29 19.5 -67t-41.5 -70q-18 -15 -56 -37t-74 -40.5t-106 -54t-115 -58.5z" />
<glyph unicode="&#xfe;" horiz-adv-x="1089" d="M-10 -322q81 0 112 33.5t31 112.5v1350q0 78 -30.5 109.5t-112.5 31.5v12l377 41v-645q111 135 274 135q110 0 196 -61.5t130.5 -161.5t44.5 -217q0 -190 -115 -315.5t-309 -125.5q-149 0 -221 72v-233q0 -76 35 -107t118 -31v-12h-530v12zM367 145q9 -62 56.5 -106.5 t115.5 -44.5q74 0 127 63.5t75.5 154t22.5 194.5q0 170 -56.5 278.5t-168.5 108.5q-99 0 -172 -95v-553z" />
<glyph unicode="&#xff;" horiz-adv-x="1009" d="M-18 821v15h567v-15q-68 0 -101 -21t-32.5 -60t24.5 -95l174 -401l74 174q94 236 94 301q0 102 -131 102v15h396v-15q-135 0 -209 -123q-7 -11 -14.5 -24t-17 -32.5t-16.5 -33.5t-19.5 -43t-19.5 -44.5t-24 -55t-25 -57.5l-208 -476q-128 -288 -312 -288q-100 0 -100 80 q0 42 33.5 64t85 30.5t106 17.5t105 38t73.5 79l17 37l-305 639q-43 97 -92 144.5t-123 47.5zM246 1130q0 52 35.5 88.5t87.5 36.5q51 0 88 -36.5t37 -88.5t-36.5 -88t-86.5 -36q-51 0 -88 36t-37 88zM610 1130q0 52 35.5 88.5t87.5 36.5q51 0 88 -36.5t37 -88.5t-37 -88 t-88 -36t-87 36t-36 88z" />
<glyph unicode="&#x152;" horiz-adv-x="2127" d="M88 633q0 190 88 340t244.5 233.5t353.5 83.5q33 0 159.5 -12t164.5 -12h876l29 -396l-10 -2q-21 94 -54.5 160.5t-91 118.5t-147.5 77t-215 25h-148v-610h47q185 0 272 67.5t116 215.5h10v-580h-10q-29 146 -116 213.5t-272 67.5h-47v-609h166q104 0 185 23t133 58.5 t91.5 92.5t61 110t41.5 126l10 -2l-38 -422h-887q-32 0 -160.5 -12.5t-165.5 -12.5q-197 0 -353.5 83t-244.5 233.5t-88 341.5zM365 633q0 -102 12 -191.5t41 -173.5t74.5 -144t117.5 -96t164 -36q307 0 307 233v813q0 234 -307 234q-92 0 -164 -36t-117.5 -95.5 t-74.5 -143.5t-41 -173t-12 -191z" />
<glyph unicode="&#x153;" horiz-adv-x="1683" d="M76 418q0 136 65.5 237.5t171 152t232.5 50.5q103 0 192 -38t148 -109q56 70 139.5 108.5t183.5 38.5q171 0 284 -103.5t116 -289.5h-602q-3 -207 71.5 -326t214.5 -119q102 0 178.5 57t122.5 136l13 -8q-137 -228 -402 -228q-212 0 -323 140q-61 -68 -148.5 -104 t-187.5 -36q-94 0 -178.5 30t-149.5 84.5t-103 139.5t-38 187zM328 418q0 -424 217 -424t217 424t-217 424t-217 -424zM1008 483h366q-1 33 -3 64.5t-8.5 76t-18.5 80.5t-30 69t-47 52t-65 19q-46 0 -82.5 -31.5t-59.5 -84.5t-36 -115t-16 -130z" />
<glyph unicode="&#x178;" horiz-adv-x="1366" d="M-23 1251v15h664v-15q-109 0 -132 -60.5t40 -164.5l256 -428h4l106 180q85 145 120.5 223.5t35.5 128.5q0 121 -174 121v15h535v-15q-89 0 -154 -33.5t-119 -99.5q-31 -36 -74.5 -102.5t-129.5 -206.5q-16 -27 -25 -41l-107 -178v-344q0 -126 41.5 -180t163.5 -54v-12 h-663v12q63 0 103.5 13.5t62.5 44.5t30 72t8 104v268l-305 500q-71 114 -138 175.5t-149 61.5zM424 1540q0 52 35.5 88.5t87.5 36.5q53 0 89 -36.5t36 -88.5t-36 -88.5t-87 -36.5t-88 36.5t-37 88.5zM788 1540q0 52 35.5 88.5t87.5 36.5q53 0 89 -36.5t36 -88.5t-36 -88.5 t-87 -36.5t-88 36.5t-37 88.5z" />
<glyph unicode="&#x2c6;" horiz-adv-x="905" d="M152 958l229 295q27 41 74 41q43 0 73 -41l228 -295l-4 -4l-297 164l-299 -164z" />
<glyph unicode="&#x2dc;" horiz-adv-x="829" d="M119 995q3 35 6.5 60.5t11 63t19 63.5t29 51t43.5 38t59 13q44 0 101.5 -27.5t116.5 -55t105 -27.5q25 0 44.5 8t30.5 19t18.5 29t10.5 33t5 35l10 -2q-3 -44 -8.5 -79.5t-18 -75.5t-29.5 -67.5t-46 -45.5t-66 -18q-43 0 -100 27.5t-116 55t-105 27.5q-31 0 -53 -11 t-33 -32t-16 -38.5t-9 -43.5h-10z" />
<glyph unicode="&#x2000;" horiz-adv-x="881" />
<glyph unicode="&#x2001;" horiz-adv-x="1763" />
<glyph unicode="&#x2002;" horiz-adv-x="881" />
<glyph unicode="&#x2003;" horiz-adv-x="1763" />
<glyph unicode="&#x2004;" horiz-adv-x="587" />
<glyph unicode="&#x2005;" horiz-adv-x="440" />
<glyph unicode="&#x2006;" horiz-adv-x="293" />
<glyph unicode="&#x2007;" horiz-adv-x="293" />
<glyph unicode="&#x2008;" horiz-adv-x="220" />
<glyph unicode="&#x2009;" horiz-adv-x="352" />
<glyph unicode="&#x200a;" horiz-adv-x="97" />
<glyph unicode="&#x2010;" horiz-adv-x="784" d="M121 442v74h541v-74h-541z" />
<glyph unicode="&#x2011;" horiz-adv-x="784" d="M121 442v74h541v-74h-541z" />
<glyph unicode="&#x2012;" horiz-adv-x="784" d="M121 442v74h541v-74h-541z" />
<glyph unicode="&#x2013;" horiz-adv-x="1181" d="M121 442v74h938v-74h-938z" />
<glyph unicode="&#x2014;" horiz-adv-x="1787" d="M121 442v74h1544v-74h-1544z" />
<glyph unicode="&#x2018;" horiz-adv-x="475" d="M82 1001q0 108 81 210t232 155l6 -10q-99 -35 -168.5 -115t-72.5 -172q36 25 78 25q55 0 94 -38.5t39 -92.5q0 -55 -41.5 -93.5t-102.5 -38.5q-66 0 -105.5 48t-39.5 122z" />
<glyph unicode="&#x2019;" horiz-adv-x="487" d="M100 840q99 35 169 114.5t73 171.5q-34 -24 -78 -24q-55 0 -94 38.5t-39 92.5q0 55 41 93t102 38q66 0 106 -48t40 -122q0 -108 -81.5 -210t-232.5 -155z" />
<glyph unicode="&#x201a;" horiz-adv-x="499" d="M74 -262q98 35 167 114.5t72 172.5q-31 -25 -77 -25q-54 0 -93 38.5t-39 92.5q0 55 40.5 93t101.5 38q67 0 106 -48t39 -122q0 -108 -80.5 -209.5t-230.5 -154.5z" />
<glyph unicode="&#x201c;" horiz-adv-x="888" d="M82 1001q0 108 81 210t232 155l6 -10q-99 -35 -168.5 -115t-72.5 -172q36 25 78 25q55 0 94 -38.5t39 -92.5q0 -55 -41.5 -93.5t-102.5 -38.5q-66 0 -105.5 48t-39.5 122zM496 1001q0 108 81 210t232 155l6 -10q-99 -35 -169 -115t-73 -172q36 25 78 25q55 0 94 -38.5 t39 -92.5q0 -55 -41 -93.5t-102 -38.5q-66 0 -105.5 48t-39.5 122z" />
<glyph unicode="&#x201d;" horiz-adv-x="901" d="M100 840q99 35 169 114.5t73 171.5q-34 -24 -78 -24q-55 0 -94 38.5t-39 92.5q0 55 41 93t102 38q66 0 106 -48t40 -122q0 -108 -81.5 -210t-232.5 -155zM514 840q99 35 169 114.5t73 171.5q-34 -24 -78 -24q-55 0 -94 38.5t-39 92.5q0 55 41 93t102 38q66 0 106 -48 t40 -122q0 -108 -81.5 -210t-232.5 -155z" />
<glyph unicode="&#x201e;" horiz-adv-x="913" d="M74 -262q98 35 167 114.5t72 172.5q-31 -25 -77 -25q-54 0 -93 38.5t-39 92.5q0 55 40.5 93t101.5 38q67 0 106 -48t39 -122q0 -108 -80.5 -209.5t-230.5 -154.5zM487 -262q99 35 168 114.5t72 172.5q-31 -25 -78 -25q-54 0 -92.5 38.5t-38.5 92.5q0 55 40 93t101 38 q67 0 106.5 -48t39.5 -122q0 -108 -80.5 -209.5t-230.5 -154.5z" />
<glyph unicode="&#x2022;" horiz-adv-x="724" d="M160 498q0 84 59 143t143 59q83 0 143 -59.5t60 -142.5q0 -84 -59.5 -143.5t-143.5 -59.5q-85 0 -143.5 59t-58.5 144z" />
<glyph unicode="&#x2026;" horiz-adv-x="1634" d="M104 123q0 58 40.5 98.5t99.5 40.5q58 0 98.5 -40t40.5 -99t-40.5 -99t-98.5 -40q-59 0 -99.5 40.5t-40.5 98.5zM678 123q0 59 40 99t99 40t99 -40t40 -99t-40 -99t-99 -40t-99 40t-40 99zM1251 123q0 58 40.5 98.5t99.5 40.5t99 -40t40 -99t-40 -99t-99 -40t-99.5 40.5 t-40.5 98.5z" />
<glyph unicode="&#x202f;" horiz-adv-x="352" />
<glyph unicode="&#x2039;" horiz-adv-x="720" d="M51 455v6l592 409l6 -10l-438 -401l438 -404l-6 -8z" />
<glyph unicode="&#x203a;" horiz-adv-x="720" d="M72 55l436 404l-436 401l6 10l592 -409v-6l-592 -408z" />
<glyph unicode="&#x205f;" horiz-adv-x="440" />
<glyph unicode="&#x20ac;" horiz-adv-x="1349" d="M70 496v18h133q-4 70 -4 107q0 91 12 147h-141v18h143q46 230 207 367t387 137q105 0 191 -30.5t137.5 -79t79.5 -104t28 -109.5q0 -68 -41 -112t-100 -44q-58 0 -98.5 42.5t-40.5 102.5q0 57 35 98.5t89 47.5q-62 172 -243 172q-86 0 -155 -37.5t-115 -105.5t-75 -154 t-42 -191h432v-18h-434q-6 -71 -6 -137q0 -35 4 -117h436v-18h-434q8 -79 24.5 -148t47 -133.5t72 -111t102 -74t133.5 -27.5q136 0 238 87.5t169 240.5l14 -6q-78 -174 -190 -261.5t-287 -87.5q-226 0 -382 140t-191 381h-135z" />
<glyph unicode="&#x2122;" horiz-adv-x="1714" d="M102 1055l17 211h549l16 -211h-6q-15 47 -28.5 77.5t-37 62t-59.5 47t-84 15.5h-6v-475q0 -61 20.5 -80.5t75.5 -19.5v-6h-332v6q54 0 74.5 19.5t20.5 80.5v475h-9q-47 0 -82 -15.5t-58 -46.5t-36.5 -62.5t-27.5 -77.5h-7zM731 676v6q52 0 79 22t41.5 77.5t22.5 170.5 l11 148q5 83 -19 120t-96 37v9h244l190 -400l168 400h203v-9q-51 0 -67 -27.5t-13 -86.5l14 -344q3 -64 22.5 -90.5t70.5 -26.5v-6h-312v6q50 0 67 26t15 83l-22 391l-209 -494h-4l-236 479l-16 -213q-11 -110 -3.5 -170.5t29.5 -81t74 -20.5v-6h-254z" />
<glyph unicode="&#x25fc;" horiz-adv-x="839" d="M0 0v840h840v-840h-840z" />
</font>
</defs>
</svg>
